<?xml version="1.0" encoding="utf-8"?>
<!-- Generator: Adobe Illustrator 18.0.0, SVG Export Plug-In . SVG Version: 6.00 Build 0)  -->
<!DOCTYPE svg PUBLIC "-//W3C//DTD SVG 1.1//EN" "http://www.w3.org/Graphics/SVG/1.1/DTD/svg11.dtd">
<svg version="1.1" id="Layer_1" xmlns="http://www.w3.org/2000/svg" xmlns:xlink="http://www.w3.org/1999/xlink" x="0px" y="0px"
	 viewBox="0 0 150 38" enable-background="new 0 0 150 38" xml:space="preserve">
<path d="M84.7,17v3.8C87.9,21.1,87.9,16.7,84.7,17z"/>
<path d="M135.2,14h-0.4v0.4h0.3c0.2,0,0.5,0,0.5-0.2C135.5,14.1,135.3,14,135.2,14z"/>
<path d="M41,17v3.8C44.2,21.1,44.2,16.7,41,17z"/>
<path d="M0,0v38h150V0H0z M30.1,23.8H18.1l-1.9-3.2l4.3-6.8h3.7l0.2,0l-1.8-3.3h3.8l6,10L30.1,23.8z M44.2,23.3
	c-1.6,0.6-4.7,0.4-6.9,0.4v-9.9c0.7,0,3.5-0.1,3.5-0.1c2.1,0.1,3.7,0.4,4.9,1.6C48.1,17.7,47.1,22.1,44.2,23.3z M54.4,16.5h-3.2v1
	h2.8v2.6h-2.8v1h3.1v2.7h-6.8v-9.9h6.8V16.5z M61.9,23.8h-6.7v-9.9h3.6v6.7h3.1V23.8z M66.5,23.8h-3.8v-6.7h-1.9v-3.2h7.6v3.2h-2
	V23.8z M74.1,23.8l-1.8-5.9l-1.8,5.9h-3.5l3.6-9.9H74l3.6,9.9H74.1z M87.9,23.3c-1.6,0.6-4.7,0.4-6.9,0.4v-9.9
	c0.7,0,3.5-0.1,3.5-0.1c2.1,0.1,3.7,0.4,4.9,1.6C91.8,17.7,90.8,22.1,87.9,23.3z M98.1,16.5h-3.2v1h2.8v2.6H95v1h3.1v2.7h-6.8v-9.9
	h6.8V16.5z M109.2,23.8h-3.7c-0.6-1-1.8-3.1-2.9-4.7c0,0.8,0,3.5,0,4.7H99c0-1.3,0.1-7.4,0-9.9h3.6c1.8,3.4,3,5.1,3,5.1V14
	c1.2,0,2.4,0,3.6,0C109.2,16.4,109.2,20,109.2,23.8z M115.6,23.8h-3.8v-6.7h-1.9v-3.2h7.6v3.2h-2V23.8z M123.2,23.8l-1.8-5.9
	l-1.8,5.9h-3.5l3.6-9.9h3.4l3.6,9.9H123.2z M133.9,23.8h-6.7v-9.9h3.6v6.7h3.1V23.8z M135.1,15.9c-0.8,0-1.4-0.6-1.4-1.3
	c0-0.7,0.6-1.3,1.4-1.3c0.8,0,1.4,0.6,1.4,1.3C136.4,15.3,135.8,15.9,135.1,15.9z"/>
<path d="M135.1,13.4c-0.6,0-1.2,0.5-1.2,1.1c0,0.6,0.5,1.1,1.2,1.1c0.6,0,1.2-0.5,1.2-1.1C136.2,14,135.7,13.4,135.1,13.4z
	 M135.7,15.3h-0.2l-0.4-0.7h-0.3v0.7h-0.2v-1.5h0.6c0.3,0,0.5,0.1,0.5,0.4c0,0.3-0.2,0.4-0.5,0.4L135.7,15.3z"/>
<polygon points="24.3,14.1 20.6,20.5 28.1,20.5 24.3,13.9 "/>
</svg>
