<?xml version="1.0" encoding="utf-8"?>
<!-- Generator: Adobe Illustrator 18.0.0, SVG Export Plug-In . SVG Version: 6.00 Build 0)  -->
<!DOCTYPE svg PUBLIC "-//W3C//DTD SVG 1.1//EN" "http://www.w3.org/Graphics/SVG/1.1/DTD/svg11.dtd">
<svg version="1.1" id="Layer_1" xmlns="http://www.w3.org/2000/svg" xmlns:xlink="http://www.w3.org/1999/xlink" x="0px" y="0px"
	 viewBox="0 0 84 92" enable-background="new 0 0 84 92" xml:space="preserve">
<g>
	<path d="M67.3,59.6c0,4.6-0.9,10.4-9.1,14.1c-0.8-0.3-1.4-0.7-2.1-1.1c0.1-1,0.2-2.1,0.2-3.2v-16h-7.2v-6h9.1h9.1V59.6z M58.2,44.6
		H46.3v13.3c0,6.1,2.1,10.4,5.8,13.3v-1.9c-2.7-3.1-3.1-6.7-3.1-9.8v-3.5h4.5v15.2c0,5.6-1.6,12.6-11.5,17.1
		c-9.4-4.2-11.3-10.8-11.5-16.2c4.4-3,7-7.5,7-14.2v-1.9h4.4h2.8v-2.7h-2.8h-4.4h-2.7h-7.1v16c0,0.6,0,1.1,0,1.6v0
		c1.1-0.7,2-1.4,2.7-2.2V56.1h4.3v3.5c0,4.6-0.9,10.4-9.1,14.1c-8.3-3.7-9.1-9.4-9.1-14.1V47.3h9.1h9.1V52h2.7v-7.4H25.8H14v13.3
		c0,8.9,4.5,13.9,11.8,16.6c0.8-0.3,1.6-0.7,2.4-1c1.3,8.1,6.3,12.9,13.9,15.8c7.5-2.9,12.6-7.6,13.9-15.7c0.7,0.3,1.4,0.7,2.2,1
		C65.5,71.8,70,66.8,70,57.9V44.6H58.2z"/>
	<path d="M19.3,37.3v-0.5c0.4-0.2,0.7-0.4,0.9-0.5c0.1-0.1,0.1-0.1,0.2-0.2c0.1-0.2,0.1-0.6,0.1-1.3c0-1,0.1-1.5,0.1-1.7v-5.7
		c0-1,0-1.9-0.1-2.8c0-0.7-0.1-1.1-0.2-1.2c-0.1-0.1-0.2-0.2-0.4-0.3c-0.2-0.1-0.7-0.1-1.6-0.1v-0.7c1.8,0,2.9,0.1,3.3,0.1
		c0.5,0,1.5,0,3.2-0.1V23c-0.9,0-1.4,0.1-1.6,0.1c-0.2,0.1-0.3,0.1-0.4,0.3c-0.1,0.1-0.1,0.5-0.2,1c0,0.1,0,1.1-0.1,3v7.1
		c0,0.7,0,1.3,0.1,1.8c0.8,0,0.9,0.1,1.8,0.1c2.1,0,3.6-0.1,4.5-0.4c0.1-0.2,0.2-0.5,0.3-0.7l0.4-1.7h0.7c-0.2,1-0.3,2.3-0.5,3.7
		c-0.3,0.1-0.5,0.1-0.7,0.1c-0.4,0-1,0-1.8,0l-5.9-0.1C20.8,37.3,20.1,37.3,19.3,37.3"/>
	<path d="M36,24.4c0,0.1,0,1.1-0.1,3v4.9 M38.2,36.7v0.7c-1.6,0-2.6-0.1-3.1-0.1l-3.4,0.1v-0.7c0.9,0,1.4-0.1,1.6-0.1
		c0.2-0.1,0.3-0.1,0.4-0.2c0.1-0.1,0.1-0.5,0.2-1c0-0.1,0-1.2,0.1-3v-4.9c0-1,0-1.9-0.1-2.8c0-0.7-0.1-1.1-0.2-1.2
		c-0.1-0.1-0.2-0.2-0.4-0.3c-0.2-0.1-0.7-0.1-1.6-0.1v-0.7c1.4,0,2.5,0.1,3.2,0.1c0.7,0,1.8,0,3.2-0.1V23c-0.9,0-1.4,0.1-1.6,0.1
		c-0.2,0.1-0.3,0.1-0.4,0.3c-0.1,0.1-0.1,0.5-0.2,1c0,0.1,0,1.1-0.1,3v4.9c0,1,0,1.9,0,2.8c0,0.7,0.1,1.1,0.2,1.2
		c0.1,0.1,0.2,0.2,0.4,0.3C36.8,36.6,37.3,36.6,38.2,36.7"/>
	<path d="M40.6,37.3v-0.7c0.8,0,1.3-0.1,1.5-0.2c0.1,0,0.2-0.1,0.2-0.2c0.1-0.1,0.1-0.5,0.2-1.1c0-0.9,0.1-1.7,0.1-2.4v-8.6
		c0-0.2,0-0.4,0-0.5c-0.1-0.1-0.2-0.3-0.4-0.5c-0.1-0.1-0.3-0.2-0.5-0.2c-0.2,0-0.6-0.1-1.2-0.1v-0.7c1.3,0,2.1,0.1,2.4,0.1
		c0.6,0,1.1,0,1.7-0.1c0.6,0.8,1.1,1.4,1.4,1.7l2.2,2.7l3.3,3.8c1,1.2,1.9,2.2,2.5,2.9c0.4,0.5,0.7,0.8,1,1.1v-7.7
		c0-0.7,0-1.5-0.1-2.4c0-0.6-0.1-0.9-0.1-1.1c-0.1-0.1-0.1-0.2-0.2-0.2C54.3,23.1,53.8,23,53,23v-0.7c0.9,0,1.8,0.1,2.6,0.1
		c0.8,0,1.6,0,2.3-0.1V23c-0.8,0-1.3,0.1-1.5,0.1c-0.1,0.1-0.2,0.1-0.2,0.2c-0.1,0.1-0.1,0.5-0.2,1.1c0,0.9-0.1,1.7-0.1,2.4V32
		c0,1,0,2.9,0.1,5.8l-1.1,0l-0.3-0.3c0,0-0.1-0.1-0.2-0.1c-0.1,0-0.2-0.2-0.4-0.4c-0.6-0.7-1.1-1.2-1.3-1.5l-1.4-1.7l-7.8-9v8.2
		c0,0.7,0,1.5,0.1,2.5c0,0.6,0.1,1,0.1,1.1c0.1,0.1,0.1,0.2,0.2,0.2c0.2,0.1,0.8,0.2,1.5,0.2v0.7c-0.6,0-1.4-0.1-2.1-0.1
		C42.5,37.3,41.6,37.3,40.6,37.3"/>
	<path d="M66.3,36.7v0.7c-1.6,0-2.6-0.1-3.1-0.1l-3.4,0.1v-0.7c0.9,0,1.4-0.1,1.6-0.1c0.2-0.1,0.3-0.1,0.4-0.2
		c0.1-0.1,0.1-0.5,0.2-1c0-0.1,0-1.2,0.1-3v-4.9c0-1,0-1.9-0.1-2.8c0-0.7-0.1-1.1-0.2-1.2c-0.1-0.1-0.2-0.2-0.4-0.3
		c-0.2-0.1-0.7-0.1-1.6-0.1v-0.7c1.4,0,2.5,0.1,3.2,0.1c0.7,0,1.8,0,3.2-0.1V23c-0.9,0-1.4,0.1-1.6,0.1c-0.2,0.1-0.3,0.1-0.4,0.3
		c-0.1,0.1-0.1,0.5-0.2,1c0,0.1,0,1.1-0.1,3v4.9c0,1,0,1.9,0,2.8c0,0.7,0.1,1.1,0.2,1.2c0.1,0.1,0.2,0.2,0.4,0.3
		C64.9,36.6,65.4,36.6,66.3,36.7"/>
	<path d="M82,35.5l-0.4,1c-0.9,0.4-1.7,0.7-2.5,0.9c-0.8,0.2-1.7,0.3-2.7,0.3c-1.1,0-2.2-0.1-3.2-0.4c-1-0.3-1.8-0.7-2.6-1.2
		c-0.7-0.5-1.3-1.1-1.8-1.7c-0.5-0.6-0.8-1.3-1.1-2.1c-0.2-0.7-0.4-1.6-0.4-2.4c0-2.2,0.8-4.1,2.5-5.5c1.6-1.5,3.9-2.2,6.7-2.2
		c0.7,0,1.3,0,1.9,0.1c0.6,0.1,1.3,0.2,2.1,0.4c0.8,0.2,1.3,0.3,1.5,0.4c-0.2,0.4-0.3,0.8-0.4,1.1c-0.1,0.6-0.2,1.3-0.2,2.1h-0.7
		l0-1.2c-0.1-0.7-0.5-1.2-1.2-1.5c-0.7-0.3-1.8-0.5-3.2-0.5c-1,0-1.9,0.1-2.7,0.4c-0.7,0.2-1.4,0.6-1.9,1.1c-0.6,0.5-1,1.2-1.4,2
		c-0.4,0.8-0.5,1.8-0.5,3c0,2.1,0.7,3.8,2,5.1c1.4,1.3,3.2,1.9,5.4,1.9c1,0,1.9-0.1,2.8-0.4c0.6-0.2,1.2-0.5,1.7-0.8L82,35.5z"/>
	<path d="M16.6,35.5l-0.4,1c-0.9,0.4-1.7,0.7-2.5,0.9c-0.8,0.2-1.7,0.3-2.7,0.3c-1.1,0-2.2-0.1-3.2-0.4c-1-0.3-1.8-0.7-2.6-1.2
		c-0.7-0.5-1.3-1.1-1.8-1.7C3,33.7,2.6,33,2.4,32.3C2.1,31.5,2,30.7,2,29.8c0-2.2,0.8-4.1,2.5-5.5c1.6-1.5,3.9-2.2,6.7-2.2
		c0.7,0,1.3,0,1.9,0.1c0.6,0.1,1.3,0.2,2.1,0.4c0.8,0.2,1.3,0.3,1.5,0.4c-0.2,0.4-0.3,0.8-0.4,1.1c-0.1,0.6-0.2,1.3-0.2,2.1h-0.7
		l0-1.2c-0.1-0.7-0.5-1.2-1.2-1.5c-0.7-0.3-1.8-0.5-3.2-0.5c-1.1,0-1.9,0.1-2.7,0.4c-0.7,0.2-1.4,0.6-1.9,1.1c-0.6,0.5-1,1.2-1.4,2
		c-0.4,0.8-0.5,1.8-0.5,3c0,2.1,0.7,3.8,2,5.1c1.4,1.3,3.2,1.9,5.4,1.9c1,0,1.9-0.1,2.8-0.4c0.6-0.2,1.2-0.5,1.7-0.8L16.6,35.5z"/>
	<path d="M8.3,3.1V2.4c0.8,0.1,1.5,0.1,2.2,0.1c0.7,0,1.4,0,2-0.1c0.7,1.4,1.2,2.6,1.8,3.7l4.2,8.2l3.8-7.5c1-2,1.7-3.5,2.1-4.4
		c0.8,0.1,1.4,0.1,2,0.1c0.5,0,1.3,0,2.4-0.1v0.7c-0.9,0-1.4,0.1-1.6,0.1c-0.2,0.1-0.3,0.1-0.4,0.3c-0.1,0.1-0.2,0.5-0.2,1
		c0,0.1,0,1.1-0.1,3v4.9c0,0.9,0,1.9,0.1,2.8c0,0.7,0.1,1.1,0.2,1.2c0.1,0.1,0.2,0.2,0.4,0.3c0.2,0.1,0.7,0.1,1.6,0.1v0.7
		c-1.5-0.1-2.5-0.1-3.1-0.1c-0.5,0-1.6,0-3.3,0.1v-0.7c0.9,0,1.4,0,1.6-0.1c0.2-0.1,0.3-0.1,0.4-0.2c0.1-0.1,0.2-0.5,0.2-1
		c0-0.1,0-1.1,0.1-3V4.6l-3.8,7.6c-0.6,1.2-1.1,2.1-1.4,2.9c-0.2,0.5-0.6,1.4-1.1,2.5h-0.4c-0.1-0.3-0.2-0.5-0.3-0.6l-0.8-1.5
		L11.5,4.9v7.3c0,1,0,1.9,0.1,2.8c0,0.7,0.1,1,0.2,1.2c0.1,0.1,0.2,0.2,0.4,0.3c0.2,0.1,0.7,0.1,1.6,0.1v0.7l-2.7-0.1l-2.8,0.1v-0.7
		c0.9,0,1.4,0,1.6-0.1c0.2-0.1,0.3-0.1,0.4-0.2c0.1-0.1,0.1-0.5,0.2-1c0-0.1,0-1.1,0-3V7.4c0-0.9,0-1.9,0-2.8c0-0.7-0.1-1.1-0.2-1.2
		c-0.1-0.1-0.2-0.2-0.4-0.3C9.7,3.2,9.2,3.1,8.3,3.1"/>
	<path d="M37.4,5.1l2.8,6.3h-5.6L37.4,5.1z M31.8,17.2c0.6,0,1.5,0,2.8,0.1v-0.7c-0.7,0-1.2,0-1.4-0.1c-0.2,0-0.3-0.1-0.4-0.2
		c-0.1-0.1-0.1-0.2-0.1-0.3c0-0.2,0.1-0.6,0.3-1.1l1.2-2.7h6.4l1.4,3.2c0.1,0.2,0.2,0.4,0.2,0.6c0,0.1,0,0.2-0.1,0.2
		c-0.1,0.1-0.2,0.1-0.4,0.2c-0.2,0-0.7,0.1-1.5,0.1v0.7l3.6-0.1c0.5,0,1.3,0,2.4,0.1v-0.7c-0.6,0-1-0.1-1.1-0.1
		c-0.2-0.1-0.3-0.2-0.5-0.5c-0.3-0.4-0.8-1.5-1.5-3.2L38.3,2.3h-0.7c-1,2.3-1.6,3.7-1.9,4.4l-2.8,5.9c-0.8,1.7-1.3,2.7-1.4,3
		c-0.2,0.5-0.4,0.7-0.5,0.8c-0.1,0.1-0.3,0.2-0.4,0.2c-0.1,0-0.5,0.1-1.1,0.1v0.7C30.3,17.3,31.1,17.2,31.8,17.2"/>
	<path d="M55.3,4.6c0.4-0.7,0.7-1.1,0.7-1.2c0-0.1-0.1-0.2-0.2-0.3c-0.1-0.1-0.8-0.1-1.6-0.1V2.4c1.4,0,2.2,0.1,2.9,0.1
		c0.7,0,1.1,0,2.6-0.1v0.7c-0.9,0-1.2,0.1-1.4,0.1c-0.2,0.1-0.4,0.1-0.6,0.3c-0.2,0.1-0.5,0.5-0.9,1l-3.2,4.6c-0.6,1-1,1.6-1.1,1.8
		c-0.1,0.2-0.1,0.4-0.1,0.6v0.8c0,1,0,1.9,0.1,2.8c0,0.7,0.1,1.1,0.2,1.2c0.1,0.1,0.2,0.2,0.4,0.3c0.2,0.1,0.7,0.1,1.6,0.1v0.7
		c-1.2,0-2.2-0.1-3.1-0.1c-0.8,0-1.9,0-3.3,0.1v-0.7c0.9,0,1.4-0.1,1.6-0.1c0.2-0.1,0.3-0.1,0.4-0.2c0.1-0.1,0.2-0.5,0.2-1
		c0-0.1,0-1.1,0.1-3v-1.2c-0.2-0.3-0.3-0.6-0.5-0.8c-0.1-0.2-0.5-0.8-1.1-1.8l-2.8-4c-0.3-0.5-0.6-0.9-0.8-1
		c-0.1-0.1-0.3-0.2-0.5-0.3c-0.2-0.1-0.5-0.1-1.4-0.1V2.4c1.4,0,1.9,0.1,2.6,0.1c0.8,0,2.7,0,4.1-0.1v0.7c-0.8,0-1.6,0.1-1.7,0.1
		c-0.1,0.1-0.2,0.1-0.2,0.3c0,0.1,0.2,0.5,0.6,1.2l3.3,5.3L55.3,4.6z"/>
	<path d="M59.5,12.9c0.4,1,0.9,1.9,1.6,2.6c0.7,0.7,1.5,1.2,2.5,1.6c1,0.3,2.1,0.5,3.2,0.5c2.5,0,4.6-0.8,6.3-2.4
		c1.7-1.6,2.5-3.5,2.5-5.9c0-0.7-0.1-1.4-0.2-2.1c-0.2-0.6-0.4-1.2-0.7-1.7c-0.4-0.6-0.9-1.2-1.5-1.8c-0.6-0.5-1.5-1-2.4-1.3
		c-1-0.3-2.1-0.5-3.3-0.5c-1.3,0-2.5,0.2-3.5,0.6c-1,0.4-1.9,0.9-2.7,1.7c-0.8,0.8-1.4,1.6-1.7,2.5c-0.3,0.9-0.5,2-0.5,3.1
		C58.9,10.9,59.1,11.9,59.5,12.9 M61.9,5.9c0.4-0.9,1.1-1.7,2-2.2c0.9-0.5,1.9-0.7,3.1-0.7c0.8,0,1.6,0.1,2.3,0.4
		c0.7,0.2,1.3,0.5,1.7,0.9c0.4,0.3,0.8,0.8,1.1,1.2c0.3,0.5,0.6,1,0.8,1.6c0.3,0.9,0.5,2,0.5,3.1c0,1.3-0.2,2.5-0.6,3.5
		c-0.4,1-1.1,1.8-1.9,2.3c-0.9,0.5-1.9,0.8-3.1,0.8c-0.8,0-1.6-0.1-2.3-0.4c-0.7-0.3-1.3-0.7-1.9-1.3c-0.6-0.6-1-1.3-1.4-2.1
		c-0.2-0.5-0.4-1.1-0.5-1.8c-0.1-0.7-0.2-1.4-0.2-2C61.2,7.9,61.5,6.8,61.9,5.9"/>
</g>
</svg>
