<?xml version="1.0" encoding="utf-8"?>
<!-- Generator: Adobe Illustrator 18.0.0, SVG Export Plug-In . SVG Version: 6.00 Build 0)  -->
<!DOCTYPE svg PUBLIC "-//W3C//DTD SVG 1.1//EN" "http://www.w3.org/Graphics/SVG/1.1/DTD/svg11.dtd">
<svg version="1.1" id="Layer_1" xmlns="http://www.w3.org/2000/svg" xmlns:xlink="http://www.w3.org/1999/xlink" x="0px" y="0px"
	 viewBox="0 0 1920 1080" enable-background="new 0 0 1920 1080" xml:space="preserve">
<g>
	<path d="M1257,699.7c0,54-10.6,122.1-106.8,165.5c-9.4-3.5-16.4-8.2-24.7-12.9c1.2-11.7,2.3-24.7,2.3-37.6V626.9h-84.5v-70.4h106.8
		H1257V699.7z M1150.2,523.6h-139.7v156.1c0,71.6,24.7,122.1,68.1,156.1v-22.3c-31.7-36.4-36.4-78.7-36.4-115v-41.1h52.8v178.4
		c0,65.7-18.8,147.9-135,200.7c-110.3-49.3-132.7-126.8-135-190.2c51.7-35.2,82.2-88,82.2-166.7v-22.3h51.7h32.9v-31.7h-32.9h-51.7
		h-31.7h-83.3v187.8c0,7,0,12.9,0,18.8l0,0c12.9-8.2,23.5-16.4,31.7-25.8V658.6h50.5v41.1c0,54-10.6,122.1-106.8,165.5
		C670,821.7,660.7,754.8,660.7,699.7V555.3h106.8h106.8v55.2H906v-86.9H769.8H631.3v156.1c0,104.5,52.8,163.2,138.5,194.9
		c9.4-3.5,18.8-8.2,28.2-11.7c15.3,95.1,74,151.4,163.2,185.5c88-34,147.9-89.2,163.2-184.3c8.2,3.5,16.4,8.2,25.8,11.7
		c85.7-32.9,138.5-91.6,138.5-196V523.6H1150.2z"/>
	<path d="M693.5,437.9V432c4.7-2.3,8.2-4.7,10.6-5.9c1.2-1.2,1.2-1.2,2.3-2.3c1.2-2.3,1.2-7,1.2-15.3c0-11.7,1.2-17.6,1.2-20v-66.9
		c0-11.7,0-22.3-1.2-32.9c0-8.2-1.2-12.9-2.3-14.1c-1.2-1.2-2.3-2.3-4.7-3.5c-2.3-1.2-8.2-1.2-18.8-1.2v-8.2c21.1,0,34,1.2,38.7,1.2
		c5.9,0,17.6,0,37.6-1.2v8.2c-10.6,0-16.4,1.2-18.8,1.2c-2.3,1.2-3.5,1.2-4.7,3.5c-1.2,1.2-1.2,5.9-2.3,11.7c0,1.2,0,12.9-1.2,35.2
		V405c0,8.2,0,15.3,1.2,21.1c9.4,0,10.6,1.2,21.1,1.2c24.7,0,42.3-1.2,52.8-4.7c1.2-2.3,2.3-5.9,3.5-8.2l4.7-20h8.2
		c-2.3,11.7-3.5,27-5.9,43.4c-3.5,1.2-5.9,1.2-8.2,1.2c-4.7,0-11.7,0-21.1,0l-69.3-1.2C711.1,437.9,702.9,437.9,693.5,437.9"/>
	<path d="M915.4,430.8v8.2c-18.8,0-30.5-1.2-36.4-1.2l-39.9,1.2v-8.2c10.6,0,16.4-1.2,18.8-1.2c2.3-1.2,3.5-1.2,4.7-2.3
		c1.2-1.2,1.2-5.9,2.3-11.7c0-1.2,0-14.1,1.2-35.2v-57.5c0-11.7,0-22.3-1.2-32.9c0-8.2-1.2-12.9-2.3-14.1c-1.2-1.2-2.3-2.3-4.7-3.5
		c-2.3-1.2-8.2-1.2-18.8-1.2V263c16.4,0,29.3,1.2,37.6,1.2s21.1,0,37.6-1.2v7c-10.6,0-16.4,1.2-18.8,1.2c-2.3,1.2-3.5,1.2-4.7,3.5
		c-1.2,1.2-1.2,5.9-2.3,11.7c0,1.2,0,12.9-1.2,35.2v57.5c0,11.7,0,22.3,0,32.9c0,8.2,1.2,12.9,2.3,14.1c1.2,1.2,2.3,2.3,4.7,3.5
		C899,429.7,904.8,429.7,915.4,430.8"/>
	<path d="M943.6,437.9v-8.2c9.4,0,15.3-1.2,17.6-2.3c1.2,0,2.3-1.2,2.3-2.3c1.2-1.2,1.2-5.9,2.3-12.9c0-10.6,1.2-20,1.2-28.2v-101
		c0-2.3,0-4.7,0-5.9c-1.2-1.2-2.3-3.5-4.7-5.9c-1.2-1.2-3.5-2.3-5.9-2.3s-7-1.2-14.1-1.2v-8.2c15.3,0,24.7,1.2,28.2,1.2
		c7,0,12.9,0,20-1.2c7,9.4,12.9,16.4,16.4,20l25.8,31.7l38.7,44.6c11.7,14.1,22.3,25.8,29.3,34c4.7,5.9,8.2,9.4,11.7,12.9v-90.4
		c0-8.2,0-17.6-1.2-28.2c0-7-1.2-10.6-1.2-12.9c-1.2-1.2-1.2-2.3-2.3-2.3c-3.5,2.3-9.4,1.2-18.8,1.2v-8.2c10.6,0,21.1,1.2,30.5,1.2
		c9.4,0,18.8,0,27-1.2v8.2c-9.4,0-15.3,1.2-17.6,1.2c-1.2,1.2-2.3,1.2-2.3,2.3c-1.2,1.2-1.2,5.9-2.3,12.9c0,10.6-1.2,20-1.2,28.2v61
		c0,11.7,0,34,1.2,68.1h-12.9l-3.5-3.5c0,0-1.2-1.2-2.3-1.2s-2.3-2.3-4.7-4.7c-7-8.2-12.9-14.1-15.3-17.6l-16.4-20l-91.6-105.7v96.3
		c0,8.2,0,17.6,1.2,29.3c0,7,1.2,11.7,1.2,12.9c1.2,1.2,1.2,2.3,2.3,2.3c2.3,1.2,9.4,2.3,17.6,2.3v8.2c-7,0-16.4-1.2-24.7-1.2
		C965.9,437.9,955.3,437.9,943.6,437.9"/>
	<path d="M1245.3,430.8v8.2c-18.8,0-30.5-1.2-36.4-1.2L1169,439v-8.2c10.6,0,16.4-1.2,18.8-1.2c2.3-1.2,3.5-1.2,4.7-2.3
		c1.2-1.2,1.2-5.9,2.3-11.7c0-1.2,0-14.1,1.2-35.2v-57.5c0-11.7,0-22.3-1.2-32.9c0-8.2-1.2-12.9-2.3-14.1s-2.3-2.3-4.7-3.5
		c-2.3-1.2-8.2-1.2-18.8-1.2V263c16.4,0,29.3,1.2,37.6,1.2s21.1,0,37.6-1.2v7c-10.6,0-16.4,1.2-18.8,1.2c-2.3,1.2-3.5,1.2-4.7,3.5
		c-1.2,1.2-1.2,5.9-2.3,11.7c0,1.2,0,12.9-1.2,35.2v57.5c0,11.7,0,22.3,0,32.9c0,8.2,1.2,12.9,2.3,14.1c1.2,1.2,2.3,2.3,4.7,3.5
		C1228.8,429.7,1234.7,429.7,1245.3,430.8"/>
	<path d="M1429.6,416.7l-4.7,11.7c-10.6,4.7-20,8.2-29.3,10.6s-20,3.5-31.7,3.5c-12.9,0-25.8-1.2-37.6-4.7
		c-11.7-3.5-21.1-8.2-30.5-14.1c-8.2-5.9-15.3-12.9-21.1-20c-5.9-7-9.4-15.3-12.9-24.7c-2.3-8.2-4.7-18.8-4.7-28.2
		c0-25.8,9.4-48.1,29.3-64.6c18.8-17.6,45.8-25.8,78.7-25.8c8.2,0,15.3,0,22.3,1.2s15.3,2.3,24.7,4.7c9.4,2.3,15.3,3.5,17.6,4.7
		c-2.3,4.7-3.5,9.4-4.7,12.9c-1.2,7-2.3,15.3-2.3,24.7h-8.2v-14.1c-1.2-8.2-5.9-14.1-14.1-17.6c-8.2-3.5-21.1-5.9-37.6-5.9
		c-11.7,0-22.3,1.2-31.7,4.7c-8.2,2.3-16.4,7-22.3,12.9c-7,5.9-11.7,14.1-16.4,23.5s-5.9,21.1-5.9,35.2c0,24.7,8.2,44.6,23.5,59.9
		c16.4,15.3,37.6,22.3,63.4,22.3c11.7,0,22.3-1.2,32.9-4.7c7-2.3,14.1-5.9,20-9.4L1429.6,416.7z"/>
	<path d="M661.8,416.7l-4.7,11.7c-10.6,4.7-20,8.2-29.3,10.6s-20,3.5-31.7,3.5c-12.9,0-25.8-1.2-37.6-4.7
		c-11.7-3.5-21.1-8.2-30.5-14.1c-8.2-5.9-15.3-12.9-21.1-20c-4.7-8.2-9.4-16.4-11.7-24.7c-3.5-9.4-4.7-18.8-4.7-29.3
		c0-25.8,9.4-48.1,29.3-64.6c18.8-17.6,45.8-25.8,78.7-25.8c8.2,0,15.3,0,22.3,1.2s15.3,2.3,24.7,4.7c9.4,2.3,15.3,3.5,17.6,4.7
		c-2.3,4.7-3.5,9.4-4.7,12.9c-1.2,7-2.3,15.3-2.3,24.7h-8.2v-14.1c-1.2-8.2-5.9-14.1-14.1-17.6c-8.2-3.5-21.1-5.9-37.6-5.9
		c-12.9,0-22.3,1.2-31.7,4.7c-8.2,2.3-16.4,7-22.3,12.9c-7,5.9-11.7,14.1-16.4,23.5c-4.7,9.4-5.9,21.1-5.9,35.2
		c0,24.7,8.2,44.6,23.5,59.9c16.4,15.3,37.6,22.3,63.4,22.3c11.7,0,22.3-1.2,32.9-4.7c7-2.3,14.1-5.9,20-9.4L661.8,416.7z"/>
	<path d="M564.4,36.4v-8.2c9.4,1.2,17.6,1.2,25.8,1.2s16.4,0,23.5-1.2c8.2,16.4,14.1,30.5,21.1,43.4l49.3,96.3l44.6-88
		c11.7-23.5,20-41.1,24.7-51.7c9.4,1.2,16.4,1.2,23.5,1.2c5.9,0,15.3,0,28.2-1.2v8.2c-10.6,0-16.4,1.2-18.8,1.2
		c-2.3,1.2-3.5,1.2-4.7,3.5c-1.2,1.2-2.3,5.9-2.3,11.7c0,1.2,0,12.9-1.2,35.2v57.5c0,10.6,0,22.3,1.2,32.9c0,8.2,1.2,12.9,2.3,14.1
		c1.2,1.2,2.3,2.3,4.7,3.5c2.3,1.2,8.2,1.2,18.8,1.2v8.2c-17.6-1.2-29.3-1.2-36.4-1.2c-5.9,0-18.8,0-38.7,1.2v-8.2
		c10.6,0,16.4,0,18.8-1.2s3.5-1.2,4.7-2.3c1.2-1.2,2.3-5.9,2.3-11.7c0-1.2,0-12.9,1.2-35.2V54l-44.6,89.2c-7,14.1-12.9,24.7-16.4,34
		c-2.3,5.9-7,16.4-12.9,29.3h-4.7c-1.2-3.5-2.3-5.9-3.5-7l-9.4-17.6L602,57.5v85.7c0,11.7,0,22.3,1.2,32.9c0,8.2,1.2,11.7,2.3,14.1
		c1.2,1.2,2.3,2.3,4.7,3.5c2.3,1.2,8.2,1.2,18.8,1.2v8.2l-31.7-1.2l-32.9,1.2v-8.2c10.6,0,16.4,0,18.8-1.2s3.5-1.2,4.7-2.3
		c1.2-1.2,1.2-5.9,2.3-11.7c0-1.2,0-12.9,0-35.2V86.9c0-10.6,0-22.3,0-32.9c0-8.2-1.2-12.9-2.3-14.1c-1.2-1.2-2.3-2.3-4.7-3.5
		C580.8,37.6,575,36.4,564.4,36.4"/>
	<path d="M906,59.9l32.9,74h-65.7L906,59.9z M840.3,201.9c7,0,17.6,0,32.9,1.2v-8.2c-8.2,0-14.1,0-16.4-1.2c-2.3,0-3.5-1.2-4.7-2.3
		c-1.2-1.2-1.2-2.3-1.2-3.5c0-2.3,1.2-7,3.5-12.9l14.1-31.7h75.1l16.4,37.6c1.2,2.3,2.3,4.7,2.3,7c0,1.2,0,2.3-1.2,2.3
		c-1.2,1.2-2.3,1.2-4.7,2.3c-2.3,0-8.2,1.2-17.6,1.2v8.2l42.3-1.2c5.9,0,15.3,0,28.2,1.2v-8.2c-7,0-11.7-1.2-12.9-1.2
		c-2.3-1.2-3.5-2.3-5.9-5.9c-3.5-4.7-9.4-17.6-17.6-37.6L916.6,27h-8.2c-11.7,27-18.8,43.4-22.3,51.7l-32.9,69.3
		c-9.4,20-15.3,31.7-16.4,35.2c-2.3,5.9-4.7,8.2-5.9,9.4c-1.2,1.2-3.5,2.3-4.7,2.3c-1.2,0-5.9,1.2-12.9,1.2v8.2
		C822.7,203.1,832,201.9,840.3,201.9"/>
	<path d="M1116.1,54c4.7-8.2,8.2-12.9,8.2-14.1c0-1.2-1.2-2.3-2.3-3.5c-1.2-1.2-9.4-1.2-18.8-1.2v-7c16.4,0,25.8,1.2,34,1.2
		s12.9,0,30.5-1.2v8.2c-10.6,0-14.1,1.2-16.4,1.2c-2.3,1.2-4.7,1.2-7,3.5c-2.3,1.2-5.9,5.9-10.6,11.7l-37.6,54
		c-7,11.7-11.7,18.8-12.9,21.1s-1.2,4.7-1.2,7v9.4c0,11.7,0,22.3,1.2,32.9c0,8.2,1.2,12.9,2.3,14.1c1.2,1.2,2.3,2.3,4.7,3.5
		c2.3,1.2,8.2,1.2,18.8,1.2v8.2c-14.1,0-25.8-1.2-36.4-1.2c-9.4,0-22.3,0-38.7,1.2V196c10.6,0,16.4-1.2,18.8-1.2
		c2.3-1.2,3.5-1.2,4.7-2.3s2.3-5.9,2.3-11.7c0-1.2,0-12.9,1.2-35.2v-14.1c-2.3-3.5-3.5-7-5.9-9.4c-1.2-2.3-5.9-9.4-12.9-21.1
		l-32.9-47c-3.5-5.9-7-10.6-9.4-11.7c-1.2-1.2-3.5-2.3-5.9-3.5s-5.9-1.2-16.4-1.2v-9.4c16.4,0,22.3,1.2,30.5,1.2
		c9.4,0,31.7,0,48.1-1.2v8.2c-9.4,0-18.8,1.2-20,1.2c-1.2,1.2-2.3,1.2-2.3,3.5c0,1.2,2.3,5.9,7,14.1l38.7,62.2L1116.1,54z"/>
	<path d="M1165.4,151.4c4.7,11.7,10.6,22.3,18.8,30.5c8.2,8.2,17.6,14.1,29.3,18.8c11.7,3.5,24.7,5.9,37.6,5.9
		c29.3,0,54-9.4,74-28.2s29.3-41.1,29.3-69.3c0-8.2-1.2-16.4-2.3-24.7c-2.3-7-4.7-14.1-8.2-20c-4.7-7-10.6-14.1-17.6-21.1
		c-7-5.9-17.6-11.7-28.2-15.3c-11.7-3.5-24.7-5.9-38.7-5.9c-15.3,0-29.3,2.3-41.1,7s-22.3,10.6-31.7,20c-9.4,9.4-16.4,18.8-20,29.3
		s-5.9,23.5-5.9,36.4C1158.4,128,1160.7,139.7,1165.4,151.4 M1193.6,69.3c4.7-10.6,12.9-20,23.5-25.8c10.6-5.9,22.3-8.2,36.4-8.2
		c9.4,0,18.8,1.2,27,4.7c8.2,2.3,15.3,5.9,20,10.6c4.7,3.5,9.4,9.4,12.9,14.1c3.5,5.9,7,11.7,9.4,18.8c3.5,10.6,5.9,23.5,5.9,36.4
		c0,15.3-2.3,29.3-7,41.1c-4.7,11.7-12.9,21.1-22.3,27c-10.6,5.9-22.3,9.4-36.4,9.4c-9.4,0-18.8-1.2-27-4.7
		c-8.2-3.5-15.3-8.2-22.3-15.3c-7-7-11.7-15.3-16.4-24.7c-2.3-5.9-4.7-12.9-5.9-21.1c-1.2-8.2-2.3-16.4-2.3-23.5
		C1185.4,92.7,1188.9,79.8,1193.6,69.3"/>
</g>
</svg>
