<?xml version="1.0" encoding="utf-8"?>
<!-- Generator: Adobe Illustrator 18.0.0, SVG Export Plug-In . SVG Version: 6.00 Build 0)  -->
<!DOCTYPE svg PUBLIC "-//W3C//DTD SVG 1.1//EN" "http://www.w3.org/Graphics/SVG/1.1/DTD/svg11.dtd">
<svg version="1.1" id="Layer_1" xmlns="http://www.w3.org/2000/svg" xmlns:xlink="http://www.w3.org/1999/xlink" x="0px" y="0px"
	 viewBox="0 0 1920 1080" enable-background="new 0 0 1920 1080" xml:space="preserve">
<g>
	<path fill="#1C1B1A" d="M237.4,640h-30.9c-2.3-2.9-5.4-7.1-8.6-11.8l24.7-24.7c0.8-0.8,0.5-2.4-0.6-3.6c-1.2-1.2-2.7-1.4-3.6-0.6
		l-23.9,23.9c-5-7.5-10.1-15.6-13.3-21.3v-42.8c0-1.6-1.3-3-3-3c-1.6,0-2.9,1.4-2.9,3v41.2c-3,5.6-8.2,14.2-13.5,22.3l-23-23
		c-0.9-0.8-2.4-0.6-3.6,0.6c-1.2,1.2-1.4,2.7-0.6,3.6l23.8,23.8c-3.4,5-6.5,9.4-8.9,12.4h-30.8c-1.2,0-2.2,1.3-2.2,3
		c0,1.6,1,3,2.2,3h29.4c2.4,2.7,6,7.8,10,13.7l-23.7,23.7c-0.8,0.8-0.6,2.4,0.6,3.6c1.2,1.2,2.8,1.4,3.6,0.6l22.9-22.9
		c5.4,8.2,10.8,17.1,13.8,22.8v41.1c0,1.7,1.3,3.1,2.9,3.1c1.7,0,3-1.4,3-3.1v-42.8c3.3-5.9,8.5-14.2,13.6-21.8l23.7,23.7
		c0.8,0.8,2.5,0.6,3.6-0.6c1.2-1.2,1.4-2.8,0.6-3.6L198.2,659c3.9-5.6,7.4-10.4,9.7-13h29.4c1.2,0,2.1-1.3,2.1-3
		C239.5,641.3,238.5,640,237.4,640z"/>
	<path fill="#1C1B1A" d="M958.9,25.9c6.6-0.4,67.4,1.8,84.1,26.3c5.1,7.5,8.1-13.1,23.6-13.1l334.7,0.5c1.3,61.3-0.9,58.7,0.4,127
		l-18.8,1.3c-15.4-38.9-25-106-109.1-106h-35c-10.2,0-19.7,7.1-20,20.5c-0.4,21.5-0.6,87.2-0.2,124.1l27.6,0
		c24.9-11,46-32.9,52.5-71.4c8.1-1.1,11.8,0,20.1-0.4l-0.4,173.4h-18c-2.8-23.1-18.4-71.4-43.8-77.1H1219c0,50.8-1.7,78.7-0.3,127.7
		c0.7,28.7,30.9,19.9,56.8,22l0.9,20.6h-179.2v-19.7c26.7-1.3,47.4,5.5,47.4-17.5V115.2c0-28.1,0.8-50.8-21-52.6h-33.8
		c0,37.5,0.4,31.1,0,112.6h-15.3c-25.8-64.8-48-128-112.1-126.6c-59.2,1.3-88.9,58.8-93.3,152c-5.7,120,36.2,176.6,92,180.5
		c102.5,7,117.8-108.2,118.7-108.2c5.3,0,14,0,21,0c0,0-3.3,130.9-145.4,134.9c-92.9,2.6-166.3-95-169.1-168.2
		c-1.1-26.3,2.8-50,0-63.1C781,152,761.7,51.3,698.7,53.9c-16.1,0.7-20.1,4-20.2,18.4l-0.9,253.1c-0.2,57.5,12.5,52.6,57,52.6v21
		H552.4v-20.2c26.3-1.7,40.3,0,49.1-11.4V80.2c0-13.7,0.5-27.2-22.4-25.8c-44.7,2.6-75.3,60-82.8,116.9h-17.5
		c0-15.8,0.9-110,0-132.7h322.8c0,43.8,1.7,49.5,3.1,76.6h6.1C858.1,29.4,943.1,26.8,958.9,25.9z"/>
	<path fill="#1C1B1A" d="M1583.6,412c136.8,36.5,188.5,79,203.7,203.7c11.4,93.6-150.9,346.2-808.5,371.3
		c-423,16.1-751.1-152.4-775.4-255.8l-6.1-15.2C244.5,836.8,591.9,946.5,977,941.1c421.6-6,737.3-124.7,785.9-285.9
		c15.8-52.4-6.1-200.7-145.9-215.8L1583.6,412z"/>
	<path fill="#1C1B1A" d="M223.7,780.9c103.1,97.7,284.9,221.5,722.9,221.5c423,0,868.4-162.6,851.2-399l5.7,46.7
		c-14.7,168-346.7,408.4-870.6,404c-422.6-3.5-625.6-179.9-657.6-215.5L223.7,780.9z"/>
	<g>
		<path fill="#1C1B1A" d="M181.2,600.5c0,3.2-1.3,14.3-1.5,14.3c0,0-1.7-11.1-1.7-14.3c0-3.2,0.7-5.8,1.6-5.8
			C180.6,594.8,181.2,597.4,181.2,600.5z"/>
		<path fill="#1C1B1A" d="M153.2,642.9c3.2,0,14.3,1.4,14.3,1.5c0,0.1-11.1,1.6-14.3,1.6c-3.2,0-5.8-0.7-5.8-1.6
			C147.5,643.6,150.1,642.9,153.2,642.9z"/>
		<path fill="#1C1B1A" d="M178.2,688c0-3.2,1.4-14.3,1.5-14.3c0.1,0,1.6,11.1,1.6,14.3c0,3.2-0.7,5.7-1.6,5.7
			C178.9,693.7,178.2,691.2,178.2,688z"/>
		<path fill="#1C1B1A" d="M206.8,646c-3.2,0-14.3-1.3-14.3-1.5c0-0.1,11.1-1.6,14.3-1.6c3.2,0,5.8,0.7,5.8,1.6
			C212.5,645.3,210,646,206.8,646z"/>
	</g>
	<path fill="#1C1B1A" d="M181.3,603.2c0,3.2-1.3,14.3-1.5,14.3c0,0-1.6-11.1-1.6-14.3c0-3.2,0.7-5.8,1.6-5.8
		C180.6,597.5,181.3,600,181.3,603.2z"/>
	<path fill="#1C1B1A" d="M154,642.9c3.2,0,14.3,1.4,14.3,1.5c0,0.1-11.1,1.6-14.3,1.6c-3.2,0-5.7-0.7-5.7-1.6
		C148.3,643.6,150.9,642.9,154,642.9z"/>
	<path fill="#1C1B1A" d="M178.2,686.8c0-3.2,1.4-14.3,1.5-14.3c0.1,0,1.6,11.1,1.6,14.3c0,3.2-0.7,5.8-1.5,5.8
		C178.9,692.5,178.2,689.9,178.2,686.8z"/>
	<path fill="#1C1B1A" d="M205.7,646.1c-3.2,0-14.3-1.3-14.3-1.5c0-0.1,11.1-1.6,14.3-1.6s5.8,0.7,5.8,1.6
		C211.5,645.4,208.9,646.1,205.7,646.1z"/>
	<path fill="#1C1B1A" d="M181.3,605.1c0,3.2-1.3,14.3-1.5,14.3c0,0-1.6-11.1-1.6-14.3c0-3.2,0.7-5.8,1.6-5.8
		C180.6,599.3,181.3,601.9,181.3,605.1z"/>
	<path fill="#1C1B1A" d="M154.9,643.2c3.2,0,14.3,1.4,14.3,1.5c0,0.1-11.1,1.6-14.3,1.6c-3.2,0-5.7-0.7-5.7-1.6
		C149.2,643.9,151.8,643.2,154.9,643.2z"/>
	<path fill="#1C1B1A" d="M178.1,685c0-3.2,1.3-14.3,1.5-14.3c0,0,1.6,11.1,1.6,14.3c0,3.2-0.7,5.8-1.6,5.8
		C178.8,690.8,178.1,688.2,178.1,685z"/>
	<path fill="#1C1B1A" d="M204.7,646.2c-3.2,0-14.3-1.3-14.3-1.5c0-0.1,11.1-1.6,14.3-1.6c3.2,0,5.8,0.7,5.8,1.6
		C210.4,645.5,207.9,646.2,204.7,646.2z"/>
	<path fill="#1C1B1A" d="M181.4,607.1c0,3.2-1.3,14.3-1.5,14.3c-0.1,0-1.6-11.1-1.6-14.3c0-3.2,0.7-5.8,1.6-5.8
		C180.7,601.4,181.4,603.9,181.4,607.1z"/>
	<path fill="#1C1B1A" d="M157.2,643.1c3.2,0,14.3,1.3,14.3,1.5c0,0.1-11.1,1.6-14.3,1.6c-3.2,0-5.8-0.7-5.8-1.6
		C151.5,643.7,154,643.1,157.2,643.1z"/>
	<path fill="#1C1B1A" d="M178.2,682.6c0-3.2,1.4-14.3,1.5-14.3c0.1,0,1.6,11.1,1.6,14.3c0,3.2-0.7,5.7-1.6,5.7
		C178.9,688.4,178.2,685.8,178.2,682.6z"/>
	<path fill="#1C1B1A" d="M202.9,646.2c-3.1,0-14.3-1.3-14.3-1.5c0-0.1,11.1-1.6,14.3-1.6c3.2,0,5.8,0.7,5.8,1.5
		C208.7,645.5,206.1,646.2,202.9,646.2z"/>
	<path fill="#1C1B1A" d="M181.2,608.7c0,3.2-1.3,14.3-1.5,14.3c0,0-1.6-11.1-1.6-14.3c0-3.2,0.7-5.8,1.6-5.8
		C180.5,602.9,181.2,605.5,181.2,608.7z"/>
	<path fill="#1C1B1A" d="M157.9,643.1c3.2,0,14.3,1.3,14.3,1.5c0,0.1-11.1,1.6-14.3,1.6c-3.2,0-5.8-0.7-5.8-1.5
		C152.2,643.7,154.7,643.1,157.9,643.1z"/>
	<path fill="#1C1B1A" d="M178,680c0-3.2,1.3-14.3,1.5-14.3c0.1,0,1.6,11.1,1.6,14.3c0,3.2-0.7,5.8-1.5,5.8
		C178.7,685.8,178,683.2,178,680z"/>
	<path fill="#1C1B1A" d="M202.3,646.2c-3.2,0-14.3-1.3-14.3-1.5c0-0.1,11.1-1.6,14.3-1.6c3.2,0,5.7,0.7,5.7,1.5
		C208.1,645.5,205.5,646.2,202.3,646.2z"/>
	<path fill="#1C1B1A" d="M181.5,615.2c0,3.2-1.3,14.3-1.5,14.3c-0.1,0-1.6-11.1-1.6-14.3c0-3.2,0.7-5.8,1.6-5.8
		C180.8,609.4,181.5,612,181.5,615.2z"/>
	<path fill="#1C1B1A" d="M160.7,643.1c3.2,0,14.3,1.3,14.3,1.5c0,0.1-11.1,1.6-14.3,1.6c-3.2,0-5.7-0.7-5.7-1.5
		C154.9,643.7,157.5,643.1,160.7,643.1z"/>
	<path fill="#1C1B1A" d="M178,677.5c0-3.2,1.3-14.3,1.5-14.3c0.1,0,1.6,11.1,1.6,14.3c0,3.2-0.7,5.8-1.6,5.8
		C178.7,683.3,178,680.7,178,677.5z"/>
	<path fill="#1C1B1A" d="M199.8,646.2c-3.2,0-14.3-1.3-14.3-1.5c0-0.1,11.1-1.6,14.3-1.6c3.2,0,5.8,0.7,5.8,1.6
		C205.6,645.5,203,646.2,199.8,646.2z"/>
	<path fill="#1C1B1A" d="M181.5,614.7c0,3.2-1.3,14.3-1.5,14.3c-0.1,0-1.7-11.1-1.7-14.3c0-3.2,0.7-5.8,1.6-5.8
		C180.8,609,181.5,611.6,181.5,614.7z"/>
	<path fill="#1C1B1A" d="M161.6,642.9c3.2,0,14.3,1.4,14.3,1.5c0,0.1-11.1,1.6-14.3,1.6c-3.2,0-5.8-0.7-5.8-1.6
		C155.8,643.6,158.4,642.9,161.6,642.9z"/>
	<path fill="#1C1B1A" d="M178.3,672.5c0-3.2,1.3-14.3,1.5-14.3c0.1,0,1.6,11.1,1.6,14.3c0,3.2-0.7,5.8-1.6,5.8
		C179.1,678.3,178.3,675.7,178.3,672.5z"/>
	<path fill="#1C1B1A" d="M197.5,646c-3.2,0-14.3-1.4-14.3-1.5c0-0.1,11.1-1.6,14.3-1.6c3.2,0,5.8,0.7,5.8,1.6
		C203.3,645.3,200.7,646,197.5,646z"/>
	<path fill="#1C1B1A" d="M551.2,752c-21,14.9-67.9,24.1-102.9,24.1h-191v-16.6c27.4-3.5,47.8-3.3,47.8-23.7V444.9
		c-9.3-12.7-49.6-8.3-49.6-8.3c0.8-7.7-0.8-8.3,1.3-19.8c10.4,0,9.2,0.1,16.7,0.1l214.6-0.4c18.8,0,75.8,25,79.8,77.5
		c6.1,79.7-61.4,84.1-90.3,95.1c80.2,11.2,109.5,43.8,109.5,92.9C587.1,724.6,566.5,736.2,551.2,752z M379.5,447.1
		c0,47.3-0.1,125.9,0.9,132.7c0.9,6.1,63.1,0,63.1,0c24.9,0,51.2-31.5,49.1-75.8c-1.6-32-16.5-66.4-47.8-67
		C420.7,436.6,392.6,430.5,379.5,447.1z M380.4,743.6c0.3,5.7,14.4,9.2,36.9,9.7c59.9,1.3,87.1-18.3,87.5-70.5
		c0.4-60.9-39.8-77.1-55.6-77.1h-68.8C380.4,605.7,378.2,709.9,380.4,743.6z"/>
	<path fill="#1C1B1A" d="M549,758.5c57.8-16.6,54.3-36.8,138.4-258.4c9.3-24.4,29.4-73.9,33.5-84.3c13.6-1.1,18.7-1,31.3,0
		c16.6,38.6,16.7,30.7,57.4,136c14.3,37,34.1,82.2,56.2,141.9c4.9,13.3,17.2,57.8,35.8,57.8c0,0,27.1-16.6,27.1-39.8l0.1-221.2
		c0-29.9-18.1-54.3-50.9-52.1V416l110.8-0.5c9.4,0,181.4,254.1,181.6,234.9c0.9-56.9,0.3-152.9,0.3-152.9
		c-0.2-66.6-30.4-56.1-49.7-59.6c0,0,0-12.8,0-21.1c0-0.4,268.5,0,268.5,0v21.5c-32.4,0.9-35.9-4-48.2,12.7c0,0-3,115.1,0.1,159.7
		c0.4,5.3,129.1-137.4,130-144.8c3.8-32.2-31.8-27.6-45.5-27.6l-0.4-21.9l151.7,0.4L1577,434c-11.8,0.4-37.7,3.4-54.3,21.1
		c-36.4,38.5-86.3,82.5-81,93.2c19.7,40.3,96.3,157.7,108.2,180.5c17.1,32.9,34.1,25.4,48.2,28v20.6l-169.5,0.4l-0.4-21.5
		c30.1,0,36.8-2.2,38.5-13.6c0,0-78.1-140.8-83.2-136.2c-11.4,10.1-41.1,40.7-41.1,49v66.6c0,40.3,14,30.7,49.2,34.6v21.1l-169.7,0
		v-21.5c17.1-0.9,45.7,6.4,45.5-17.1l-1.3-266.7c-0.1-25.9-9.6-32.9-28.9-32.9c-40.3,0-38.7,38.1-38.5,72.1
		c0.9,203.2-0.5,201.2-0.5,265.6h-28.9L955,498.4c0,0-0.4,130.1,0,219.9c0,5.8,13.1,42.5,54.8,38.5v19.7H767.1l0.9-18.4
		c21.9,0.9,34.7-2.3,34.7-15.3c0,0-22.9-71.4-31.6-71.9c-24.5-1.2-62.2-0.4-93.3-0.4c-27.6,0-33.8-7-43.8,53.4
		c-4.3,26.1,23.6,34.2,49.5,34.6V776L549,776.5V758.5z M662,644.7c18.4,1.7,71.8,0,102.5-0.9c0,0-48.2-130.5-52.6-130.5
		C708,513.3,675.6,601.3,662,644.7z"/>
	<path fill="#1C1B1A" d="M1608.2,752.6c0-14.4,11.7-25.1,25.6-25.1c13.7,0,25.4,10.7,25.4,25.1c0,14.6-11.7,25.2-25.4,25.2
		C1619.9,777.8,1608.2,767.2,1608.2,752.6z M1633.7,773.7c11.4,0,20.4-8.9,20.4-21c0-11.9-9-20.9-20.4-20.9
		c-11.5,0-20.5,9-20.5,20.9C1613.3,764.7,1622.2,773.7,1633.7,773.7z M1628.4,767.2h-4.4v-29h11c6.9,0,10.3,2.5,10.3,8.2
		c0,5.2-3.3,7.4-7.6,8l8.3,12.8h-4.9l-7.6-12.6h-5V767.2z M1633.7,750.9c3.7,0,7.1-0.3,7.1-4.7c0-3.6-3.3-4.3-6.3-4.3h-6v9H1633.7z"
		/>
</g>
</svg>
