<?xml version="1.0" encoding="utf-8"?>
<!-- Generator: Adobe Illustrator 18.0.0, SVG Export Plug-In . SVG Version: 6.00 Build 0)  -->
<!DOCTYPE svg PUBLIC "-//W3C//DTD SVG 1.1//EN" "http://www.w3.org/Graphics/SVG/1.1/DTD/svg11.dtd">
<svg version="1.1" id="Layer_1" xmlns="http://www.w3.org/2000/svg" xmlns:xlink="http://www.w3.org/1999/xlink" x="0px" y="0px"
	 viewBox="0 0 102 64" enable-background="new 0 0 102 64" xml:space="preserve">
<g>
	<g>
		<path fill="#1C1B1A" d="M5,43.1c0,0.1-0.4,0.2-0.5,0.2l0,0c-0.1,0-0.5-0.1-0.5-0.2V33.1c0-0.1,0.4-0.2,0.5-0.2l0,0
			C4.6,32.9,5,33,5,33.1V43.1z"/>
		<path fill="#1C1B1A" d="M8.1,38c0.1,0,0.1,0,0.1,0l0,0C8.3,39,8.2,38,8.1,38h-7C1,38,1,39,1,38l0,0c0,0,0.1,0,0.1,0H8.1z"/>
		<path fill="#1C1B1A" d="M7,35.5c0,0,0.1,0,0.2,0l0,0c0.1,0.1,0.1,0.2,0,0.2l-5,5c0,0-0.1,0-0.2,0l0,0C2,40.6,2,40.5,2,40.4L7,35.5
			z"/>
		<path fill="#1C1B1A" d="M2.1,35.7c0-0.1,0-0.1,0-0.2l0,0c0.1-0.1,0.2-0.1,0.2,0l5,5c0,0.1,0,0.1,0,0.2l0,0c-0.1,0.1-0.2,0.1-0.2,0
			L2.1,35.7z"/>
		<g>
			<path fill="#1C1B1A" d="M6.5,38.1c-0.2,0-1.9,2.7-1.9,2.9c0-0.3-1.7-2.9-1.9-2.9c0.2,0,1.9-2.7,1.9-2.9
				C4.6,35.5,6.4,38.1,6.5,38.1z"/>
			<path fill="#1C1B1A" d="M6.4,38.1c-0.3,0-1.8,2.4-1.8,2.8c0-0.4-1.5-2.8-1.8-2.8c0.3,0,1.8-2.4,1.8-2.8
				C4.6,35.7,6.2,38.1,6.4,38.1z"/>
			<path fill="#1C1B1A" d="M6.3,38.1c-0.3,0-1.7,2.1-1.7,2.6c0-0.5-1.4-2.6-1.7-2.6c0.3,0,1.7-2.1,1.7-2.6C4.6,36,6,38.1,6.3,38.1z"
				/>
			<path fill="#1C1B1A" d="M6.2,38.1c-0.4,0-1.6,1.9-1.6,2.5c0-0.6-1.2-2.5-1.6-2.5c0.4,0,1.6-1.9,1.6-2.5
				C4.6,36.2,5.8,38.1,6.2,38.1z"/>
			<path fill="#1C1B1A" d="M6.1,38.1c-0.5,0-1.5,1.6-1.5,2.3c0-0.7-1-2.3-1.5-2.3c0.5,0,1.5-1.6,1.5-2.3C4.6,36.5,5.7,38.1,6.1,38.1
				z"/>
			<path fill="#1C1B1A" d="M6,38.1c-0.5,0-1.4,1.3-1.4,2.1c0-0.8-0.9-2.1-1.4-2.1c0.5,0,1.4-1.3,1.4-2.1C4.6,36.8,5.5,38.1,6,38.1z"
				/>
			<path fill="#1C1B1A" d="M5.9,38.1c-0.6,0-1.3,1.1-1.3,2c0-0.9-0.7-2-1.3-2c0.6,0,1.3-1.1,1.3-2C4.6,37,5.3,38.1,5.9,38.1z"/>
		</g>
	</g>
	<path fill="#1C1B1A" d="M50.9,1.6c0.4,0,4,0,5,1.5c0.3,0.4,0.5-0.8,1.4-0.8l19.8,0c0.1,3.6-0.1,3.5,0,7.5l-1.1,0.3
		C75.1,7.8,74.6,4,69.6,4h-2.1c-0.6,0-1.2,0.2-1.2,1c0,1.3,0,5.1,0,7.3l1.6,0c1.5-0.7,2.7-2,3.1-4.3c0.5-0.1,0.7-0.1,1.2-0.1l0,10.2
		h-1.1c-0.2-1-1.1-4-2.6-4h-2.2c0,3-0.1,4.5,0,7.4c0,1.7,1.8,1.2,3.4,1.3l0.1,1.3H59v-1.4c2-0.1,3,0.3,3-1V6.8C62,5.1,62,4,60.7,4
		h-2c0,2,0,2,0,6h-0.9c-1.5-3-2.8-7.4-6.6-7.3c-3.5,0.1-5.3,3.6-5.5,9.1c-0.3,7.1,2.1,10.5,5.5,10.7c6.1,0.4,7-6.4,7-6.4
		c0.3,0,0.8,0,1.2,0c0,0-0.2,7.8-8.6,8c-5.5,0.2-9.9-5.6-10-10c-0.1-1.6,0.2-3,0-3.7C40.4,9,39.2,3,35.5,3.1c-1,0-1.2,0.2-1.2,1.1
		l0.1,15c0,3.4,0.6,3.1,3.6,3.1V24H27v-1.6c1-0.1,2,0,3-0.7v-17c0-0.8-0.1-1.7-1.5-1.6c-2.6,0.2-4.6,3.9-5,6.9h-1c0-1,0.1-6,0-8
		h19.1c0,3,0.1,3,0.2,5h0.4C44.9,2,50,1.6,50.9,1.6z"/>
	<path fill="#1C1B1A" d="M88,24.4c8.1,2.2,11.2,4.7,12.1,12.1c0.7,5.5-8.9,20.5-47.9,22c-25.1,1-44.5-9-46-15.2l-0.4-0.9
		C8.6,49.5,29.2,56.1,52,55.7c25-0.4,43.7-7.4,46.6-16.9c0.9-3.1-0.4-11.9-8.7-12.8L88,24.4z"/>
	<path fill="#1C1B1A" d="M7.3,46.2c6.1,5.8,16.9,13.1,42.9,13.1c25.1,0,51.5-9.6,50.5-23.7l0.3,2.8c-0.9,10-20.6,24.2-51.6,23.9
		c-25.1-0.2-37.1-10.7-39-12.8L7.3,46.2z"/>
	<g>
		<path fill="#1C1B1A" d="M4.8,35.5c0,0.2-0.1,0.8-0.1,0.8c0,0-0.1-0.7-0.1-0.8c0-0.2,0-0.3,0.1-0.3C4.8,35.2,4.8,35.4,4.8,35.5z"/>
		<path fill="#1C1B1A" d="M3.2,38C3.4,38,4,38.1,4,38.1c0,0-0.7,0.1-0.8,0.1c-0.2,0-0.3,0-0.3-0.1C2.8,38.1,3,38,3.2,38z"/>
		<path fill="#1C1B1A" d="M4.6,40.7c0-0.2,0.1-0.8,0.1-0.8c0,0,0.1,0.7,0.1,0.8c0,0.2,0,0.3-0.1,0.3C4.7,41.1,4.6,40.9,4.6,40.7z"/>
		<path fill="#1C1B1A" d="M6.3,38.2c-0.2,0-0.8-0.1-0.8-0.1c0,0,0.7-0.1,0.8-0.1s0.3,0,0.3,0.1C6.7,38.2,6.5,38.2,6.3,38.2z"/>
	</g>
	<path fill="#1C1B1A" d="M4.8,35.7c0,0.2-0.1,0.8-0.1,0.8c0,0-0.1-0.7-0.1-0.8s0-0.3,0.1-0.3C4.8,35.4,4.8,35.5,4.8,35.7z"/>
	<path fill="#1C1B1A" d="M3.2,38c0.2,0,0.8,0.1,0.8,0.1c0,0-0.7,0.1-0.8,0.1c-0.2,0-0.3,0-0.3-0.1C2.9,38.1,3,38,3.2,38z"/>
	<path fill="#1C1B1A" d="M4.6,40.7c0-0.2,0.1-0.8,0.1-0.8c0,0,0.1,0.7,0.1,0.8s0,0.3-0.1,0.3C4.7,41,4.6,40.8,4.6,40.7z"/>
	<path fill="#1C1B1A" d="M6.3,38.2c-0.2,0-0.8-0.1-0.8-0.1c0,0,0.7-0.1,0.8-0.1s0.3,0,0.3,0.1C6.6,38.2,6.5,38.2,6.3,38.2z"/>
	<path fill="#1C1B1A" d="M4.8,35.8c0,0.2-0.1,0.8-0.1,0.8c0,0-0.1-0.7-0.1-0.8c0-0.2,0-0.3,0.1-0.3C4.8,35.5,4.8,35.6,4.8,35.8z"/>
	<path fill="#1C1B1A" d="M3.3,38.1c0.2,0,0.8,0.1,0.8,0.1c0,0-0.7,0.1-0.8,0.1c-0.2,0-0.3,0-0.3-0.1C2.9,38.1,3.1,38.1,3.3,38.1z"/>
	<path fill="#1C1B1A" d="M4.6,40.5c0-0.2,0.1-0.8,0.1-0.8c0,0,0.1,0.7,0.1,0.8c0,0.2,0,0.3-0.1,0.3C4.7,40.9,4.6,40.7,4.6,40.5z"/>
	<path fill="#1C1B1A" d="M6.2,38.2c-0.2,0-0.8-0.1-0.8-0.1c0,0,0.7-0.1,0.8-0.1c0.2,0,0.3,0,0.3,0.1C6.6,38.2,6.4,38.2,6.2,38.2z"/>
	<path fill="#1C1B1A" d="M4.8,35.9c0,0.2-0.1,0.8-0.1,0.8c0,0-0.1-0.7-0.1-0.8c0-0.2,0-0.3,0.1-0.3C4.8,35.6,4.8,35.7,4.8,35.9z"/>
	<path fill="#1C1B1A" d="M3.4,38.1c0.2,0,0.8,0.1,0.8,0.1c0,0-0.7,0.1-0.8,0.1c-0.2,0-0.3,0-0.3-0.1C3.1,38.1,3.2,38.1,3.4,38.1z"/>
	<path fill="#1C1B1A" d="M4.6,40.4c0-0.2,0.1-0.8,0.1-0.8c0,0,0.1,0.7,0.1,0.8c0,0.2,0,0.3-0.1,0.3C4.7,40.7,4.6,40.6,4.6,40.4z"/>
	<path fill="#1C1B1A" d="M6.1,38.2c-0.2,0-0.8-0.1-0.8-0.1c0,0,0.7-0.1,0.8-0.1c0.2,0,0.3,0,0.3,0.1C6.5,38.2,6.3,38.2,6.1,38.2z"/>
	<path fill="#1C1B1A" d="M4.8,36c0,0.2-0.1,0.8-0.1,0.8c0,0-0.1-0.7-0.1-0.8c0-0.2,0-0.3,0.1-0.3C4.8,35.7,4.8,35.8,4.8,36z"/>
	<path fill="#1C1B1A" d="M3.4,38.1c0.2,0,0.8,0.1,0.8,0.1c0,0-0.7,0.1-0.8,0.1c-0.2,0-0.3,0-0.3-0.1C3.1,38.1,3.2,38.1,3.4,38.1z"/>
	<path fill="#1C1B1A" d="M4.6,40.2c0-0.2,0.1-0.8,0.1-0.8c0,0,0.1,0.7,0.1,0.8c0,0.2,0,0.3-0.1,0.3C4.7,40.6,4.6,40.4,4.6,40.2z"/>
	<path fill="#1C1B1A" d="M6.1,38.2c-0.2,0-0.8-0.1-0.8-0.1c0,0,0.7-0.1,0.8-0.1c0.2,0,0.3,0,0.3,0.1C6.4,38.2,6.3,38.2,6.1,38.2z"/>
	<path fill="#1C1B1A" d="M4.8,36.4c0,0.2-0.1,0.8-0.1,0.8c0,0-0.1-0.7-0.1-0.8c0-0.2,0-0.3,0.1-0.3C4.8,36.1,4.8,36.2,4.8,36.4z"/>
	<path fill="#1C1B1A" d="M3.6,38.1c0.2,0,0.8,0.1,0.8,0.1c0,0-0.7,0.1-0.8,0.1c-0.2,0-0.3,0-0.3-0.1C3.3,38.1,3.4,38.1,3.6,38.1z"/>
	<path fill="#1C1B1A" d="M4.6,40.1c0-0.2,0.1-0.8,0.1-0.8c0,0,0.1,0.7,0.1,0.8c0,0.2,0,0.3-0.1,0.3C4.7,40.4,4.6,40.3,4.6,40.1z"/>
	<path fill="#1C1B1A" d="M5.9,38.2c-0.2,0-0.8-0.1-0.8-0.1c0,0,0.7-0.1,0.8-0.1c0.2,0,0.3,0,0.3,0.1C6.3,38.2,6.1,38.2,5.9,38.2z"/>
	<path fill="#1C1B1A" d="M4.8,36.4c0,0.2-0.1,0.8-0.1,0.8c0,0-0.1-0.7-0.1-0.8c0-0.2,0-0.3,0.1-0.3C4.8,36,4.8,36.2,4.8,36.4z"/>
	<path fill="#1C1B1A" d="M3.7,38c0.2,0,0.8,0.1,0.8,0.1c0,0-0.7,0.1-0.8,0.1c-0.2,0-0.3,0-0.3-0.1C3.3,38.1,3.5,38,3.7,38z"/>
	<path fill="#1C1B1A" d="M4.6,39.8c0-0.2,0.1-0.8,0.1-0.8c0,0,0.1,0.7,0.1,0.8c0,0.2,0,0.3-0.1,0.3C4.7,40.1,4.6,40,4.6,39.8z"/>
	<path fill="#1C1B1A" d="M5.8,38.2c-0.2,0-0.8-0.1-0.8-0.1c0,0,0.7-0.1,0.8-0.1c0.2,0,0.3,0,0.3,0.1C6.1,38.2,6,38.2,5.8,38.2z"/>
	<path fill="#1C1B1A" d="M26.8,44.5c-1.2,0.9-4,1.5-6.1,1.5H9v-1c2-0.2,3-0.2,3-1.4V26.3c0-0.8-2.9-0.5-2.9-0.5c0-0.5,0-0.5,0.1-1.2
		c0.6,0,0.6,0,1,0l12.7,0c1.1,0,4.5,1.5,4.7,4.6c0.4,4.7-3.6,5-5.4,5.6c4.8,0.7,6.5,2.6,6.5,5.5C28.9,42.9,27.7,43.6,26.8,44.5z
		 M16.6,26.4c0,2.8,0,7.5,0.1,7.9c0.1,0.4,3.7,0,3.7,0c1.5,0,3-1.9,2.9-4.5c-0.1-1.9-1-3.9-2.8-4C19,25.8,17.4,25.5,16.6,26.4z
		 M16.6,44.1c0,0.3,0.9,0.5,2.2,0.5c3.6,0.1,5.2-1,5.2-4.1c0-3.6-2.4-4.5-3.3-4.5h-4.1C16.6,36,16.5,42.1,16.6,44.1z"/>
	<path fill="#1C1B1A" d="M27,44.9c3-1,3-2.2,8-15.3c0.5-1.4,1.6-4.4,1.9-5c0.8-0.1,1.1-0.1,1.8,0c1,2.3,1,1.8,3.4,8.1
		c0.8,2.2,2,4.9,3.3,8.4c0.3,0.8,1,3.4,2.1,3.4c0,0,1.6-1,1.6-2.4L49.1,29c0-1.8-1.1-3.2-3.1-3.1v-1.3l6.6,0
		c0.6,0,10.8,15.1,10.8,13.9c0.1-3.4,0.3-9.1,0.3-9.1c0-3.9-1.7-3.3-2.7-3.5V25h15v0.9c-1,0.1-1.9-0.2-2.6,0.8c0,0-0.1,6.8,0.1,9.5
		c0,0.3,7.7-8.1,7.8-8.6c0.2-1.9-1.9-1.6-2.7-1.6l0-1.3l9,0l0,1c-0.7,0-2.2,0.2-3.2,1.2c-2.2,2.3-5.1,4.9-4.8,5.5
		c1.2,2.4,5.8,9.3,6.5,10.7c1,1.9,2,1.5,3,1.7V46l-10.1,0l-0.1-1.3c1.8,0,2.2-0.1,2.3-0.8c0,0-4.5-8.3-4.8-8.1
		c-0.7,0.6-2.3,2.4-2.3,2.9v3.9c0,2.4,0,1.8,3,2.1v1.2l-10,0v-1.3c1-0.1,2.5,0.4,2.4-1L69.2,28c0-1.5-0.6-1.9-1.8-1.9
		c-2.4,0-2.3,2.2-2.3,4.3c0.1,12-0.1,11.7-0.1,15.7h-1.7L50.7,29.5c0,0,0,7.7,0,13c0,0.3,0.3,2.5,3.3,2.3V46H39.6l0.1-1.1
		c1.3,0.1,2.1-0.1,2.1-0.9c0,0-1.4-4.2-1.9-4.3c-1.5-0.1-3.7,0-5.5,0c-1.6,0-1.8-0.4-2.4,3.2c-0.3,1.5,1.1,2,3.1,2v1l-8,0V44.9z
		 M33.3,38.2c1.1,0.1,4.3,0,6.1-0.1c0,0-2.9-7.7-3.1-7.7C36,30.4,34.1,35.6,33.3,38.2z"/>
	<path fill="#1C1B1A" d="M89.4,44.6c0-0.9,0.7-1.5,1.5-1.5c0.8,0,1.5,0.6,1.5,1.5c0,0.9-0.7,1.5-1.5,1.5
		C90.1,46.1,89.4,45.4,89.4,44.6z M90.9,45.8c0.7,0,1.2-0.5,1.2-1.2c0-0.7-0.5-1.2-1.2-1.2c-0.7,0-1.2,0.5-1.2,1.2
		C89.7,45.3,90.2,45.8,90.9,45.8z M90.6,45.4h-0.3v-1.7H91c0.4,0,0.6,0.1,0.6,0.5c0,0.3-0.2,0.4-0.4,0.5l0.5,0.8h-0.3l-0.5-0.7h-0.3
		V45.4z M90.9,44.5c0.2,0,0.4,0,0.4-0.3c0-0.2-0.2-0.3-0.4-0.3h-0.4v0.5H90.9z"/>
</g>
</svg>
