<?xml version="1.0" encoding="utf-8"?>
<!-- Generator: Adobe Illustrator 18.0.0, SVG Export Plug-In . SVG Version: 6.00 Build 0)  -->
<!DOCTYPE svg PUBLIC "-//W3C//DTD SVG 1.1//EN" "http://www.w3.org/Graphics/SVG/1.1/DTD/svg11.dtd">
<svg version="1.1" id="Layer_1" xmlns="http://www.w3.org/2000/svg" xmlns:xlink="http://www.w3.org/1999/xlink" x="0px" y="0px"
	 viewBox="0 0 94 54" enable-background="new 0 0 94 54" xml:space="preserve">
<g>
	<g>
		<path fill="#1C1B1A" d="M90.2,47.7c0.3,0.1,0.5,0.2,0.7,0.4c0.2,0.2,0.3,0.4,0.4,0.6c0.1,0.3,0.2,0.6,0.2,0.9
			c0,0.4-0.1,0.7-0.3,1.1c-0.2,0.3-0.4,0.6-0.8,0.8c-0.3,0.2-0.7,0.3-1,0.3c-0.4,0-0.7-0.1-1-0.3c-0.3-0.2-0.6-0.4-0.8-0.8
			c-0.2-0.3-0.3-0.7-0.3-1.1c0-0.3,0.1-0.6,0.2-0.9c0.1-0.3,0.3-0.5,0.5-0.7c0.2-0.2,0.4-0.3,0.6-0.4c0.3-0.1,0.6-0.2,0.9-0.2
			C89.7,47.6,90,47.6,90.2,47.7z M91.7,48.7c-0.1-0.3-0.3-0.5-0.5-0.7c-0.2-0.2-0.5-0.4-0.8-0.5c-0.3-0.1-0.6-0.2-1-0.2
			c-0.4,0-0.7,0.1-1.1,0.2c-0.2,0.1-0.5,0.3-0.7,0.5c-0.2,0.2-0.4,0.5-0.5,0.8c-0.1,0.3-0.2,0.6-0.2,1c0,0.4,0.1,0.9,0.3,1.2
			c0.2,0.4,0.5,0.7,0.9,0.9c0.4,0.2,0.8,0.3,1.2,0.3c0.4,0,0.7-0.1,1.1-0.2c0.3-0.1,0.5-0.3,0.7-0.5c0.2-0.2,0.4-0.5,0.5-0.8
			c0.1-0.3,0.2-0.6,0.2-0.9C91.9,49.4,91.9,49,91.7,48.7z M89.4,50.1c0.2,0,0.3,0,0.4,0.1c0.1,0,0.1,0.1,0.2,0.2
			c0,0.1,0.1,0.2,0.1,0.4c0,0.2,0,0.4,0,0.4h0.6c0-0.1,0-0.2,0-0.4c0-0.2,0-0.3,0-0.4c0-0.1-0.1-0.2-0.1-0.3c0-0.1-0.1-0.1-0.2-0.2
			c-0.1,0-0.2-0.1-0.3-0.1c0.1,0,0.2,0,0.3-0.1c0.1-0.1,0.2-0.1,0.3-0.2c0.1-0.1,0.1-0.2,0.1-0.4c0-0.1,0-0.3-0.1-0.4
			c-0.1-0.1-0.1-0.2-0.2-0.3c-0.1-0.1-0.2-0.1-0.4-0.1c-0.1,0-0.3,0-0.5,0h-1v2.8H89v-1H89.4z M89.7,48.8c0.1,0,0.2,0.1,0.2,0.1
			C90,49,90,49.1,90,49.2c0,0.1,0,0.2-0.1,0.2c0,0.1-0.1,0.1-0.2,0.2c-0.1,0-0.2,0.1-0.3,0.1H89v-0.9h0.4
			C89.5,48.8,89.6,48.8,89.7,48.8z"/>
	</g>
	<path fill="#1C1B1A" d="M79.9,39.6L65.4,15.3h4V2.7H45.1v12.6h4l-5.6,9.3L38,15.3h4V2.7H17.7v12.6h4L7.1,39.6H1.9v12.6h24.8V39.6
		h-4.4L29.9,27l2.9,4.9H30v12.6h27.1V31.9h-2.8l2.9-4.9l7.6,12.6h-4.4v12.6h24.8V39.6H79.9z M83.5,50.6c-2.6,0-18.9,0-21.5,0
		c0-2.1,0-7.3,0-9.4c1.3,0,5.7,0,5.7,0L57.2,23.8l-5.8,9.7c0,0,3.5,0,4.1,0c0,2.1,0,7.3,0,9.4c-2.7,0-21.2,0-23.9,0
		c0-2.1,0-7.3,0-9.4c0.6,0,4.1,0,4.1,0l-5.8-9.7L19.4,41.2c0,0,4.4,0,5.7,0c0,2.1,0,7.3,0,9.4c-2.6,0-18.9,0-21.5,0
		c0-2.1,0-7.3,0-9.4c1.5,0,4.5,0,4.5,0l16.5-27.5c0,0-4.1,0-5.3,0c0-2.1,0-7.3,0-9.4c2.6,0,18.4,0,21,0c0,2.1,0,7.3,0,9.4
		c-1.2,0-5.3,0-5.3,0l8.4,14l8.4-14c0,0-4.1,0-5.3,0c0-2.1,0-7.3,0-9.4c2.6,0,18.4,0,21,0c0,2.1,0,7.3,0,9.4c-1.2,0-5.3,0-5.3,0
		L79,41.2c0,0,3,0,4.5,0C83.5,43.3,83.5,48.5,83.5,50.6z"/>
	<g>
		<g>
			<path fill="#1C1B1A" d="M66.1,5.9c0,1.8,0,4.4,0,6.2c-1.6,0-6.5,0-6.5,0l18.5,30.7c0,0,2.5,0,3.8,0c0,1.8,0,4.4,0,6.2
				c-2.5,0-15.7,0-18.3,0c0-1.8,0-4.4,0-6.2c1.7,0,6.9,0,6.9,0L57.2,20.7l-8.7,14.4c0,0,4.1,0,5.3,0c0,1.8,0,4.4,0,6.2
				c-2.6,0-18.1,0-20.7,0c0-1.8,0-4.4,0-6.2c1.2,0,5.3,0,5.3,0l-8.7-14.4L16.5,42.8c0,0,5.3,0,6.9,0c0,1.8,0,4.4,0,6.2
				c-2.5,0-15.7,0-18.3,0c0-1.8,0-4.4,0-6.2c1.3,0,3.8,0,3.8,0l18.5-30.7c0,0-5,0-6.5,0c0-1.8,0-4.4,0-6.2c2.5,0,15.3,0,17.8,0
				c0,1.8,0,4.4,0,6.2c-1.6,0-6.5,0-6.5,0l11.3,18.8l11.3-18.8c0,0-5,0-6.5,0c0-1.8,0-4.4,0-6.2C50.9,5.9,63.6,5.9,66.1,5.9z"/>
		</g>
	</g>
</g>
</svg>
