<?xml version="1.0" encoding="utf-8"?>
<!-- Generator: Adobe Illustrator 18.0.0, SVG Export Plug-In . SVG Version: 6.00 Build 0)  -->
<!DOCTYPE svg PUBLIC "-//W3C//DTD SVG 1.1//EN" "http://www.w3.org/Graphics/SVG/1.1/DTD/svg11.dtd">
<svg version="1.1" id="Layer_1" xmlns="http://www.w3.org/2000/svg" xmlns:xlink="http://www.w3.org/1999/xlink" x="0px" y="0px"
	 viewBox="0 0 102 60" enable-background="new 0 0 102 60" xml:space="preserve">
<g>
	<g>
		<g>
			<path d="M1,48.4h2v10.2H1V48.4z"/>
			<path d="M5.3,48.4h2.1l5.2,7.5h0v-7.5h1.9v10.2h-2.1l-5.1-7.5h0v7.5H5.3V48.4z"/>
			<path d="M15.8,48.4h9.1v1.5h-3.6v8.7h-2v-8.7h-3.6V48.4z"/>
			<path d="M26.2,48.4h8.1v1.5h-6.2v2.7h5.7V54h-5.7v3h6.3v1.5h-8.2V48.4z"/>
			<path d="M36.2,48.4h5.4c2.5,0,3.7,1,3.7,2.8c0,2-1.5,2.5-1.9,2.6v0c0.7,0.1,1.7,0.6,1.7,2.2c0,1.2,0.2,2.3,0.6,2.7h-2.1
				c-0.3-0.4-0.3-1-0.3-1.5c0-1.9-0.4-2.7-2.2-2.7h-2.9v4.2h-2V48.4z M38.2,53h3.2c1.3,0,1.9-0.5,1.9-1.6c0-1.3-0.9-1.6-2-1.6h-3.2
				V53z"/>
			<path d="M50.3,48.4h2.1l4.4,10.2h-2.1l-1.1-2.7h-4.5L48,58.6h-2L50.3,48.4z M49.6,54.5h3.4l-1.7-4.4h0L49.6,54.5z"/>
			<path d="M65.5,51.6c-0.3-1.2-1.2-2-2.8-2c-2.4,0-3.4,1.9-3.4,3.9s1,3.9,3.4,3.9c1.8,0,2.7-1.2,2.9-2.7h1.9
				c-0.2,2.4-2.1,4.1-4.8,4.1c-3.4,0-5.4-2.4-5.4-5.3c0-2.9,2-5.3,5.4-5.3c2.6,0,4.5,1.3,4.8,3.5H65.5z"/>
			<path d="M68.2,48.4h9.1v1.5h-3.6v8.7h-2v-8.7h-3.6V48.4z"/>
			<path d="M78.7,48.4h2v10.2h-2V48.4z"/>
			<path d="M81.8,48.4h2.1l2.8,8.1h0l2.9-8.1h2l-3.9,10.2h-2.2L81.8,48.4z"/>
			<path d="M92.8,48.4h8.1v1.5h-6.2v2.7h5.7V54h-5.7v3h6.3v1.5h-8.2V48.4z"/>
		</g>
		<g>
			<path d="M15.2,29.3v6c0,1-0.4,1.9-1.1,2.7c-0.7,0.7-1.6,1.1-2.7,1.1c-1,0-1.9-0.4-2.7-1.1c-0.7-0.7-1.1-1.6-1.1-2.7V11.5
				c0-1,0.4-1.9,1.1-2.7c0.7-0.7,1.6-1.1,2.7-1.1c1,0,1.9,0.4,2.7,1.1c0.7,0.7,1.1,1.6,1.1,2.7v5.1h4.5V5.2
				c-0.3-0.3-0.5-0.6-0.8-0.9c-2-2-4.5-3.1-7.4-3.1c-2.9,0-5.3,1-7.4,3c-2,2-3.1,4.5-3.1,7.4v23.8c0,2.9,1,5.3,3,7.3
				c2,2,4.5,3,7.4,3c2.8,0,5.3-1,7.3-3c0.3-0.3,0.5-0.6,0.8-1V29.3H15.2z"/>
			<path d="M38.8,26.2c2.3-2.1,3.5-4.7,3.5-7.8v-6.3c0-3.1-0.8-5.6-2.3-7.4c-1.7-2-4.4-3-8.1-3H21.6v3.5c1.5,1.8,2.3,4,2.3,6.4v5
				h-2.3v12.7h2.3v6.1c0,2.5-0.8,4.6-2.3,6.4v3.4h6.6V28.8H32c0.2,0,0.4,0,0.6,0l4,16.4h3.2l1.6-9.1L38.8,26.2z M35.9,18.5
				c0,1-0.4,1.9-1.1,2.7c-0.7,0.7-1.6,1.1-2.7,1.1h-4V8.4h4c2.5,0,3.7,1.3,3.7,3.8V18.5z"/>
			<path d="M63.5,34.4L58,1.7h-9l-5.8,34.4l2.3,9.1h2.9l1.6-10h6.8l1.5,10h3.4v-6.6L63.5,34.4z M51,28.8l2.4-17.2l2.4,17.2H51z"/>
			<polygon points="70.5,38.7 80.1,14.7 80.1,1.7 63.5,1.7 63.5,8.3 75.6,8.2 65.2,34.4 67,45.2 80.1,45.2 80.1,38.7 			"/>
			<polygon points="100.4,8.2 100.4,1.6 84.3,1.7 84.3,8.3 81.7,14.7 81.7,38.7 84.3,38.7 84.3,45.2 100.4,45.2 100.4,38.6 
				88.3,38.6 88.3,26.7 97.1,26.7 97.1,20.1 88.3,20.1 88.3,8.2 			"/>
		</g>
	</g>
</g>
</svg>
