<?xml version="1.0" encoding="utf-8"?>
<!-- Generator: Adobe Illustrator 18.0.0, SVG Export Plug-In . SVG Version: 6.00 Build 0)  -->
<!DOCTYPE svg PUBLIC "-//W3C//DTD SVG 1.1//EN" "http://www.w3.org/Graphics/SVG/1.1/DTD/svg11.dtd">
<svg version="1.1" id="Layer_1" xmlns="http://www.w3.org/2000/svg" xmlns:xlink="http://www.w3.org/1999/xlink" x="0px" y="0px"
	 viewBox="0 0 1920 1080" enable-background="new 0 0 1920 1080" xml:space="preserve">
<g>
	<g>
		<path fill="#1C1B1A" d="M1834.5,949.7c5.2,2.1,9.7,5,13.5,8.7c3.7,3.7,6.8,7.9,8.9,12.4c2.8,5.9,4.3,12.2,4.3,18.7
			c0,7.6-1.9,14.8-5.7,21.5c-3.7,6.8-9,12.1-15.8,15.9c-6.7,3.8-13.8,5.7-21.2,5.7c-7.3,0-14.4-1.9-21.1-5.7
			c-6.7-3.8-12-9.1-15.8-15.9c-3.8-6.7-5.7-13.9-5.7-21.5c0-6.4,1.2-12.2,3.7-17.5c2.4-5.2,5.5-9.7,9.2-13.3
			c3.7-3.6,7.7-6.4,12.1-8.3c5.7-2.6,11.6-3.8,17.6-3.8C1823.9,946.6,1829.3,947.6,1834.5,949.7z M1864.6,968.6
			c-2.3-5.1-5.5-9.9-9.8-14.3c-4.3-4.4-9.5-8-15.7-10.9c-6.2-2.9-13.1-4.4-20.6-4.4c-7.7,0-15,1.7-21.9,5c-5.1,2.4-9.7,5.7-13.9,9.9
			c-4.3,4.3-7.8,9.4-10.5,15.6c-2.7,6.2-4.1,12.8-4.1,20c0,8.8,2.2,17.3,6.7,25.3c4.5,8,10.7,14.2,18.7,18.7
			c7.9,4.4,16.3,6.6,25.1,6.6c7.8,0,15.1-1.7,22.1-5c5.2-2.6,10.1-6.2,14.5-10.7c4.4-4.5,7.8-9.8,10.3-16c2.4-6.2,3.6-12.4,3.6-18.9
			C1869.1,982.4,1867.6,975.4,1864.6,968.6z M1816.9,996.8c3.2,0,5.6,0.5,7.3,1.3c1.6,0.9,2.8,2.1,3.5,3.5c0.7,1.5,1.2,3.9,1.4,7.3
			c0.3,4.7,0.6,7.6,1,8.4h11.9c-0.5-1.6-0.8-4-0.9-7.3c0-3.4-0.2-5.8-0.5-7.2c-0.5-2.2-1.3-4-2.3-5.5c-1-1.5-2.3-2.7-3.8-3.5
			c-1.5-0.9-3.6-1.6-6.2-2.1c2.8-0.4,5-0.8,6.2-1.4c2.2-1.1,4-2.8,5.4-4.9c1.4-2.2,2.1-4.6,2.1-7.5c0-2.9-0.6-5.4-1.9-7.6
			c-1.3-2.2-2.9-3.9-4.9-5.2c-2-1.3-4.6-2.2-7.8-2.8c-2.2-0.4-5.5-0.6-9.9-0.6h-20v55.8h12.4v-20.6H1816.9z M1823.4,971
			c1.9,0.6,3.5,1.5,4.5,2.9c1,1.4,1.6,3.1,1.6,5c0,1.8-0.5,3.4-1.5,4.8c-0.9,1.4-2.3,2.5-4.2,3.2c-1.8,0.7-3.8,1.1-5.9,1.1h-8.2
			v-17.8h8.2C1819.7,970.2,1821.5,970.5,1823.4,971z"/>
	</g>
	<path fill="#1C1B1A" d="M1626.8,784.9l-294.6-489.9h81.2V39.9H922.8v255.2h81.2L891.4,482.2L778.9,295.1H860V39.9H369.5v255.2h81.2
		L156,784.9H50.9v255.2h500.2V784.9h-89.8l153.4-255.2l59.5,98.9h-57.1v255.2h548.4V628.7h-57.1l59.5-98.9l153.5,255.2h-89.8v255.2
		h500.2V784.9H1626.8z M1699.3,1007.4c-53.2,0-381.7,0-434.9,0c0-42.4,0-147.4,0-189.7c26.5,0,115.1,0,115.1,0l-211.4-351.4
		l-117.4,195.1c0,0,70.3,0,82.2,0c0,42.4,0,147.4,0,189.8c-54.2,0-428.8,0-483,0c0-42.4,0-147.4,0-189.8c11.9,0,82.3,0,82.3,0
		L614.8,466.3L403.5,817.7c0,0,88.5,0,115,0c0,42.4,0,147.3,0,189.7c-53.1,0-381.6,0-434.8,0c0-42.4,0-147.4,0-189.7
		c31,0,90.8,0,90.8,0l334.1-555.3c0,0-82.9,0-106.3,0c0-42.4,0-147.4,0-189.8c52.9,0,372.1,0,425,0c0,42.5,0,147.4,0,189.8
		c-23.2,0-106.3,0-106.3,0l170.4,283.3l170.5-283.3c0,0-83,0-106.3,0c0-42.4,0-147.4,0-189.8c52.9,0,372.1,0,425,0
		c0,42.5,0,147.4,0,189.8c-23.3,0-106.3,0-106.3,0l334,555.3c0,0,59.9,0,90.9,0C1699.3,860.1,1699.3,965,1699.3,1007.4z"/>
	<g>
		<g>
			<path fill="#1C1B1A" d="M1347.9,105.3c0,35.5,0,88.9,0,124.4c-31.4,0-131.4,0-131.4,0l373.4,620.7c0,0,49.9,0,76.7,0
				c0,35.5,0,88.9,0,124.3c-51.5,0-318,0-369.4,0c0-35.5,0-88.9,0-124.3c33.5,0,140.2,0,140.2,0l-269.3-447.5L992.9,694.2
				c0,0,83.7,0,107.3,0c0,35.5,0,88.8,0,124.3c-52.8,0-364.8,0-417.6,0c0-35.5,0-88.9,0-124.3c23.8,0,107.4,0,107.4,0L614.8,402.8
				L345.6,850.4c0,0,106.6,0,140.1,0c0,35.5,0,88.9,0,124.3c-51.4,0-317.9,0-369.4,0c0-35.5,0-88.9,0-124.3c26.8,0,76.7,0,76.7,0
				l373.5-620.7c0,0-100.1,0-131.5,0c0-35.5,0-88.9,0-124.4c51.1,0,308.5,0,359.6,0c0,35.5,0,88.9,0,124.4c-31.4,0-131.5,0-131.5,0
				l228.3,379.5l228.4-379.5c0,0-100.1,0-131.5,0c0-35.5,0-88.9,0-124.4C1039.4,105.3,1296.8,105.3,1347.9,105.3z"/>
		</g>
	</g>
</g>
</svg>
