<?xml version="1.0" encoding="utf-8"?>
<!-- Generator: Adobe Illustrator 18.0.0, SVG Export Plug-In . SVG Version: 6.00 Build 0)  -->
<!DOCTYPE svg PUBLIC "-//W3C//DTD SVG 1.1//EN" "http://www.w3.org/Graphics/SVG/1.1/DTD/svg11.dtd">
<svg version="1.1" xmlns="http://www.w3.org/2000/svg" xmlns:xlink="http://www.w3.org/1999/xlink" x="0px" y="0px"
	 viewBox="0 0 116 80" enable-background="new 0 0 116 80" xml:space="preserve">
<g id="Layer_1">
	<g>
		<path d="M83.3,14.9c0.4,0.1,0.6-0.3,0.3-0.4C83.4,14.5,82.9,14.8,83.3,14.9C83.4,15,83.2,14.9,83.3,14.9z"/>
		<path d="M20.5,18.2c0.3,0.1,1-0.4,0.5-0.7C20.5,17.1,20.3,18.1,20.5,18.2z"/>
		<path d="M84.3,14.7c0.5,0.6,0.5-0.5,0.4-0.8C84.3,13.3,83.9,14.3,84.3,14.7C84.3,14.8,84.2,14.7,84.3,14.7z"/>
		<path d="M73.1,10.7c0.6,0.1,0.9,0.5,1.2-0.1c0.1-0.3,1.5,0.1,1-0.7c-0.1-0.2-0.3-0.1-0.5-0.1c-0.3,0-0.3-0.7-0.5-0.9
			c-0.3-0.2-0.8,0.5-1.1,0.6C73,9.7,73.6,9.9,73.6,10C73.6,10,72.2,10.5,73.1,10.7C73.2,10.7,73,10.7,73.1,10.7z"/>
		<path d="M76.4,11.8c0.2,0,0.6-0.3,0.2-0.5C76.2,11.1,75.9,11.8,76.4,11.8C76.4,11.8,76.2,11.8,76.4,11.8z"/>
		<path d="M71.6,10.7c0.3,0.1,0.7,0,0.6-0.4C72,9.7,71.2,10.6,71.6,10.7C71.7,10.8,71.6,10.7,71.6,10.7z"/>
		<path d="M88.7,15.6c0.3,0.1,0.7-0.4,0.3-0.5C88.7,14.9,88.4,15.5,88.7,15.6C88.9,15.7,88.7,15.6,88.7,15.6z"/>
		<path d="M10.8,42.4c0.3,0.1,0.6-0.3,0.3-0.5C10.7,41.7,10.5,42.3,10.8,42.4C10.9,42.4,10.8,42.4,10.8,42.4z"/>
		<path d="M8.8,47.3c-0.2,0-0.4,0.1-0.3,0.4C8.7,48.1,9.3,47.4,8.8,47.3C8.8,47.3,8.9,47.3,8.8,47.3z"/>
		<path d="M11,44.1c0.1-0.4-0.5-1-0.9-0.5C9.7,44.2,10.9,44.6,11,44.1z"/>
		<path d="M68.9,9.6c0.2,0,0.5-0.3,0.3-0.5C69,8.8,68.6,9.6,68.9,9.6C69,9.6,68.9,9.6,68.9,9.6z"/>
		<path d="M11.4,45.2c-0.7-0.4-0.7,0.8,0,0.8C11.9,45.9,11.8,45.4,11.4,45.2z"/>
		<path d="M86.9,16.1c0.1,0.2,0.4-0.1,0.3-0.2C87,15.6,86.8,15.9,86.9,16.1C86.9,16.1,86.9,16.1,86.9,16.1z"/>
		<path d="M46,12.8c-0.2,0.1,0,0.4,0.2,0.4C46.5,13.1,46.5,12.4,46,12.8C46,12.8,46.1,12.7,46,12.8z"/>
		<path d="M67.4,9.4c0.3-0.1,0-0.3-0.1-0.3C66.9,9.1,67.1,9.5,67.4,9.4C67.5,9.4,67.3,9.5,67.4,9.4z"/>
		<path d="M40.4,13.3c0.2,0.3,1,0,0.8-0.3C40.9,12.5,40,12.7,40.4,13.3C40.5,13.3,40.4,13.2,40.4,13.3z"/>
		<path d="M43.7,13.4c0.5,0,0.5-0.8,0-0.6C43.4,12.8,43.3,13.4,43.7,13.4C43.8,13.4,43.6,13.4,43.7,13.4z"/>
		<path d="M49.7,12.6c0.3,0.5,0.6-0.4,0.5-0.6C50.1,11.7,49.3,12.1,49.7,12.6C49.7,12.6,49.6,12.5,49.7,12.6z"/>
		<path d="M45.6,12.1c0,0.2,0.3,0.3,0.5,0.3c0.3,0.1,0.3-0.6,0.3-0.8c0-0.3-0.4-0.2-0.5-0.2C45.5,11.4,45.6,11.9,45.6,12.1z"/>
		<path d="M61.5,9.9C61.8,10,62,10,62,9.6C61.9,9,61.1,9.7,61.5,9.9C61.6,9.9,61.5,9.9,61.5,9.9z"/>
		<path d="M52.1,9.2c0.3,0.1,0.6-0.2,0.4-0.5C52.2,8.1,51.4,9,52.1,9.2C52.2,9.2,52,9.2,52.1,9.2z"/>
		<path d="M58.3,10.3c0,0.4,0.9,0.6,0.9,0.2C59.2,9.9,58.3,9.7,58.3,10.3z"/>
		<path d="M55,9.9c0.3,0.4,0.6-0.1,0.6-0.4C55.5,9,54.7,9.5,55,9.9C55,10,55,9.9,55,9.9z"/>
		<path d="M57,10.8c0.2,0,0.7-0.2,0.3-0.5C56.9,10,56.7,10.8,57,10.8C57.1,10.8,57,10.8,57,10.8z"/>
		<path d="M101.3,11.5c0.1,0,0.4-0.4,0.1-0.4C101.1,11,101.1,11.6,101.3,11.5z"/>
		<path d="M99.2,12.8c0.6,0.1,2.1-1.2,1-1.1c-0.2,0.1-0.3,0.2-0.5,0.3c-0.2,0-0.4-0.1-0.5-0.1C98.8,12,98.7,12.7,99.2,12.8z"/>
		<path d="M98.6,14.7c0.4-0.1,0.7-0.7,0.1-0.8C98,13.9,98.4,14.5,98.6,14.7C98.9,14.7,98.5,14.6,98.6,14.7z"/>
		<path d="M38.1,15.1c0.4,0.6,1.2,0.1,1.7,0c0.4-0.1,1.1-1.2,0.4-1.2c-0.6,0-1,0.9-1.4,0.5C38.3,13.8,37.8,14.6,38.1,15.1
			C38.2,15.3,38.1,15.1,38.1,15.1z"/>
		<path d="M100.9,14.3c0,0,0.5-0.3,0.5-0.3C101.3,13.4,100.3,14.3,100.9,14.3z"/>
		<path d="M93.1,7.2c0.1-0.1,1-1,0.4-1.1C92.8,6.1,92.7,7.5,93.1,7.2C93.3,7,92.9,7.3,93.1,7.2z"/>
		<path d="M94.1,8.4c0.3,0,0.6,0.5,0.8,0.2C95.8,7.7,93.8,8.3,94.1,8.4z"/>
		<path d="M94.4,6.5c0.2,0,0.1-0.2,0-0.3C94.3,6.1,94.1,6.5,94.4,6.5z"/>
		<path d="M105,18c0.2,0,0.4-0.2,0.1-0.3C104.9,17.6,104.9,18,105,18C105.1,18,105,18,105,18z"/>
		<path d="M109.7,21.3c0.5-0.1,1.2-0.5,0.4-0.9C109.3,20.1,109.5,21.4,109.7,21.3C109.9,21.3,109.6,21.3,109.7,21.3z"/>
		<path d="M25.3,13.5c0.5,0.2,0.9-0.5,0.5-0.6C25.5,12.8,24.8,13.3,25.3,13.5C25.5,13.5,25.2,13.4,25.3,13.5z"/>
		<path d="M103,14.7c0.6,0,0.9-1.1,0.4-0.9C103,13.9,102.3,14.8,103,14.7z"/>
		<path d="M102.1,17.8c0.5,0,1-0.7,0.3-0.8C101.8,16.9,101.4,17.9,102.1,17.8C102.4,17.8,101.8,17.8,102.1,17.8z"/>
		<path d="M103.4,16.4c0,0-0.2,0.1-0.2,0.2c0-0.1,0.7,0,0.7-0.1C104,16.5,103.7,16,103.4,16.4z"/>
		<path d="M44.7,5.5C45,5.7,45.5,5.1,45,4.9C44.6,4.7,44.3,5.4,44.7,5.5C44.7,5.6,44.6,5.5,44.7,5.5z"/>
		<path d="M41.3,5.5C41.6,6.2,42,5,42,4.8C41.9,4.5,40.9,4.8,41.3,5.5z"/>
		<path d="M81.2,5.1c0.5,0,0.5-0.6,0.2-0.8C81,4,80.4,5.1,81.2,5.1C81.4,5.1,81,5.1,81.2,5.1z"/>
		<path d="M34.6,8.2c0.2,0,0.7,0,0.9,0c0.4,0,0.7-0.8,0.3-0.9c-0.4-0.1-0.7,0.3-1.1,0.2C34.5,7.4,34.2,8.1,34.6,8.2
			C34.7,8.2,34.6,8.1,34.6,8.2z"/>
		<path d="M40.1,7.4c0.4,0.2,1.1-0.2,0.7-0.6C40.5,6.5,39.6,7.2,40.1,7.4z"/>
		<path d="M89.1,7.5c0.4,0.1,0.3-0.7,0-0.7c0.1,0-0.2,0.5-0.2,0.5C88.9,7.3,89,7.4,89.1,7.5z"/>
		<path d="M82.7,6.5c0.3,0,0.7-0.4,0.4-0.7C82.6,5.4,81.9,6.4,82.7,6.5C82.9,6.5,82.5,6.5,82.7,6.5z"/>
		<path d="M88,6.7c0.3,0.4,0.8-0.5,0.2-0.5C88,6.2,87.9,6.6,88,6.7z"/>
		<path d="M88,6.9C88,6.9,88,6.9,88,6.9C88,6.9,88,6.9,88,6.9z"/>
		<path d="M84.1,5.3C84.4,5.3,84.2,5,84,5C83.9,5.2,83.9,5.2,84.1,5.3z"/>
		<path d="M87.2,4.9c0-0.1-0.1-0.1-0.2-0.1C86.7,4.9,87.2,5.3,87.2,4.9C87.1,4.9,87.2,5.1,87.2,4.9z"/>
		<path d="M83.8,6.1c0-0.1-0.1-0.3-0.2-0.2C83.4,6,83.7,6.4,83.8,6.1z"/>
		<path d="M31.1,19.3c-0.3,0.9,1.6,0.1,0.9-0.3c-0.1-0.1-0.5-0.5-0.7-0.5C30.8,18.7,31.2,18.9,31.1,19.3
			C31.1,19.3,31.1,19.3,31.1,19.3z"/>
		<path d="M93.9,58.2c-0.4-0.3-0.6,0.1-0.7,0.4c0,0.4-0.9-0.2-0.9,0.5C92.4,60.3,94.5,58.6,93.9,58.2C93.9,58.2,93.9,58.2,93.9,58.2
			z"/>
		<path d="M80.8,65.4c-0.3-0.3-1.6-0.2-1.1,0.4C80,66.2,81.3,65.9,80.8,65.4C80.8,65.4,80.8,65.4,80.8,65.4z"/>
		<path d="M90.5,57.7c-0.1,0.1,0,0.3,0.1,0.2C90.7,57.9,90.6,57.6,90.5,57.7C90.4,57.8,90.5,57.7,90.5,57.7z"/>
		<path d="M94.6,57.7c-0.2,0-0.3,0.2-0.1,0.3C94.7,57.9,94.8,57.7,94.6,57.7C94.5,57.6,94.6,57.7,94.6,57.7z"/>
		<path d="M98.6,50.1c-0.3,0-0.4,0.4-0.1,0.6C98.9,50.8,99.1,50,98.6,50.1C98.6,50.1,98.7,50.1,98.6,50.1z"/>
		<path d="M92.9,56.7c0.5,0.7,1.1,0.1,0.7-0.2c-0.2-0.1-0.9-0.7-1-0.2C92.4,56.6,92.7,56.5,92.9,56.7C92.9,56.8,92.8,56.7,92.9,56.7
			z"/>
		<path d="M83,65.8c-0.3-0.1-0.4,0.3-0.2,0.5C83.1,66.7,83.4,65.9,83,65.8C82.9,65.8,83,65.8,83,65.8z"/>
		<path d="M85.8,62.7c-0.3-0.3-0.2-0.5-0.8-0.5c-0.4,0-0.6,0.5-0.2,0.7c0.4,0.2,0.7,1,1.2,0.7C86.5,63.3,86.1,62.9,85.8,62.7
			C85.8,62.7,85.9,62.8,85.8,62.7z"/>
		<path d="M86.8,62c-0.7-0.5-0.4-0.3-0.1-0.8c0.6-0.8-1.1-0.1-1.2-0.1c-0.8,0.2,0.5,1.1,0.6,1.2c0.3,0.2,0.2,0.4,0.5,0.3
			C86.9,62.5,87,62.1,86.8,62C86.7,61.9,86.8,62,86.8,62z"/>
		<path d="M88.6,62.5c-0.6-0.1-0.3,0.5-0.9,0.6c0,0-1.5,0.7-0.8,0.8c0.6,0.1,1.1-0.3,1.6-0.5C88.9,63.3,89,62.6,88.6,62.5
			C88.5,62.5,88.7,62.5,88.6,62.5z"/>
		<path d="M89.3,60.9c-0.4-0.1-0.5,0.2-0.5,0.5C88.9,62,90,61.1,89.3,60.9C89.2,60.9,89.4,60.9,89.3,60.9z"/>
		<path d="M89.5,58c-0.6-0.1-0.8,1.1-0.9,1.6c0,0.2-0.4,0.2-0.5,0.3c-0.4,0.4,0.4,0.7,0.6,0.7c0.7-0.1,0.2-0.6,0.5-1
			C89.3,59.4,90.1,58,89.5,58C89.4,58,89.6,58,89.5,58z"/>
		<path d="M16.3,51.5c0.2-0.1-0.1-0.4-0.2-0.3C15.8,51.4,16,51.7,16.3,51.5C16.3,51.5,16.2,51.6,16.3,51.5z"/>
		<path d="M108.4,32.8c-0.5-0.2-0.7,0.5-0.2,0.5C108.4,33.2,108.7,32.9,108.4,32.8C108.2,32.7,108.4,32.8,108.4,32.8z"/>
		<path d="M75.9,65.5C75.9,65.4,75.9,65.5,75.9,65.5C75.9,65.5,75.9,65.5,75.9,65.5z"/>
		<path d="M112.9,34.3c-0.3-0.4-0.3-2.2,0-2.6c0.3-0.5,0-0.6-0.2-0.9c-0.2-0.3-0.1-1.2,0.1-1.4c0.1-0.1-0.3-0.8-0.4-1
			c-0.1-0.3,0.1-1.2-0.1-1.5c0,0-0.3-1.3-0.3-1.4c0-0.3-0.4-1.5-0.8-1.5c-0.2-0.3-0.4-0.8-0.6-1.1c0,0,0,0.1,0,0.1
			c-0.2-0.6-0.5-0.8-1-0.9c-0.7-0.1-0.8-0.7-1.2-1.1c-0.6-0.5-1.2-0.8-1.8-1.2c-0.3-0.2-0.7-0.5-1.1-0.6c-0.4-0.1-0.7,0-1.1-0.2
			c-0.3-0.2-0.6-1-0.9-1c-0.6,0-1.2,0.7-1.8,0.5c-0.8-0.3-0.7-1.3-0.4-1.9c0.1-0.2,0-0.3,0-0.4c0-0.2,0.2,0,0.3-0.1
			c0.5-0.5-1.5-0.1-1.4,0c-0.2,0,0.8-1.3-0.1-1.1c-0.3,0.1-1.7,0.5-1.9,0.1c-0.2-0.6,0-0.9,0.2-1.4c0.1-0.4-0.7-0.2-0.8-0.5
			c-0.3-0.4-0.9-0.3-1.2-0.8c-0.1-0.1-0.3-0.6,0-0.6c0,0,0.8-1.6-0.2-1.4c-0.4,0.1-0.8,0.3-0.6,0.7c0.1,0.3,0,0.6-0.4,0.5
			c-0.5-0.2-1.1,0.3-1.4,0c-0.7-0.7,0.6-0.6,0.7-0.9c0.3-0.6-1-0.2-1-0.4c0-0.3,0.1-0.5-0.2-0.7C92.7,9,93,9.7,92.8,9.6
			c-0.5-0.2-0.9-0.1-1.5-0.1c-1,0,0.1-1,0.1-1.1c0,0-1.1-0.2-1.3-0.4c-0.2-0.1,0.5-0.4-0.1-0.4c-0.4-0.1-0.7,1-1,0.5
			c-0.2-0.3,0-0.8-0.6-0.6C87.7,7.8,88.1,7.2,88,7c-0.1-0.5-1,0.6-1,0.6c-0.3-0.1-0.7-1.1-1.2-0.3c-0.7,1.1-0.6-0.9-0.6-0.9
			C85,6,84.6,6.6,84.5,6.9c-0.1,0.3,0.1,0.6-0.3,0.7C84,7.7,83.5,8,83.3,7.7c-0.2-0.3,0.1-0.6-0.2-1c-0.2-0.2-0.6,0-0.9,0
			C82,6.7,81.1,6.2,81,6c-0.3-0.7-1.2-0.1-1.6-0.8c-0.2-0.4-0.9-0.8-1.4-0.6c-0.4,0-1-0.3-1.4-0.4c-0.3-0.1-0.9-0.4-1.2-0.6
			c-0.3-0.2-0.6-0.1-0.9-0.2c-0.4-0.1-0.6-0.3-1-0.4c-0.5-0.1-0.8-0.1-1.1,0.3c-0.2,0.2-1.1-0.4-1.3-0.5c-0.4-0.1-0.9,0-1.3-0.1
			c-0.5-0.1-1.1,0-1.5,0c-0.2,0-1.1,0-1.2-0.1c-0.5-0.2-1.1,0.1-1.6-0.2c-0.7-0.4-1.6,0.6-2.3,0.3c-1.9-0.6-3.5,0.5-5.2,0.7
			c-0.3,0-1,0.5-1.2,0.4c-0.5-0.1-1,0-1.6-0.1c-0.5-0.1-1,0.6-1.5,0.3c-0.1-0.1-1.2-0.1-1.3,0c-0.1,0.1-0.7-0.1-0.9,0
			c-0.4,0.1-0.7,0.5-1.1,0.5c-0.1,0-0.5,0.3-0.7,0.4c-0.3,0.1-0.7,0-1.1,0c-0.3,0-0.5,0.3-1,0.2c-0.2,0-0.7,0.1-0.9,0.2
			c-0.5,0.3-0.7-0.2-0.9,0.5c-0.2,0.5-0.9,0-1.1,0.3c-0.1,0.3-1.8,0.4-2.1,0.3c-0.2-0.1-0.9,0.9-1,1c-0.1,0.1,0,0.5-0.2,0.5
			c-0.1,0-0.7,0.1-0.9,0.1c-0.5,0-0.3-0.1-0.7-0.2c-0.6-0.1-1.1,0.1-1.7,0.1c-0.2,0-0.8,0-0.8,0.1c0,0.1-0.7,0.7-0.9,0.6
			c-0.3,0-2,0.5-2,1c-0.1,0.7,0,0.8-0.7,1c-0.5,0.2-0.6-0.5-1,0.1c-0.3,0.5-1.7,0.8-2.2,1c-0.3,0.1-0.5,0.6-0.8,0.8
			c-0.3,0.2-1.3,0.4-1.7,0.6c-0.3,0.1-1.1,0.3-1.1,0.7c-0.1,0.7-0.3,0.2-0.8,0.5c-0.1,0.1-0.5,0.7-0.6,0.8c-0.3,0.4-0.4-0.2-0.7-0.1
			c-0.3,0.2-0.7,0.1-1,0.2c-0.4,0.1-0.7,0.8-1,0.9c-0.6,0.1-0.5,0.5-0.7,1c-0.2,0.3-0.9,1-0.9,1.3c0,0.6-1.2,1.1-1.7,1.1
			c-0.5,0-0.7,0.5-0.4,0.9c0.2,0.3,1.1-0.5,1.1,0.3c0,0.8-1.1,0.1-1.3,0.5c-0.1,0.2-0.9,0.8-1.1,0.9c-0.6,0.3-1,1.2-1.4,1.8
			c-0.2,0.3-0.7,0.7-0.9,1c-0.1,0.2-0.2,1-0.4,1.1c-0.8,0.5-0.7,1.3-1.1,2.1c-0.1,0.2-0.6,0.5-0.4,0.8c0.2,0.5-0.4,0.5-0.5,0.9
			c-0.1,0.5-0.2,0.6-0.5,1.1c-0.1,0.2-0.2,0.3-0.1,0.4c0.1,0.3-0.4,0.4-0.4,0.6c-0.1,0.4-0.4,0.6-0.5,0.9c-0.1,0.6,0,0.9-0.1,1.4
			c-0.1,0.6-0.4,0.5-0.7,0.8c-0.2,0.2-0.8,0.6-1,0.7c-0.3,0.1-0.4,0.6-0.7,0.7c-0.5,0.2-0.3,0.6-0.5,0.9c-0.1,0.2-0.4,0.8-0.5,0.8
			c-0.4,0.2-0.6,0.4-1,0.6c-0.3,0.1,0,0.5,0.1,0.7c0,0.2-0.3,0.2-0.4,0.2c-0.2,0.1,0.1,0.5-0.1,0.7c-0.2,0.2-0.6,0.2-0.7,0.4
			c-0.2,0.4-0.7,0.5-0.8,0.8c-0.2,0.4-0.5,1-0.8,1.2c-0.4,0.3-1.2,1.4-1.3,1.9c0,0.1-0.1,1.2-0.2,1.2c-0.5,0.4,0.2,0.8,0.2,1.2
			c0,0.1,0.3,0.7,0.4,0.8c0.3,0.3,0.4,1,0.5,1.4c0,0.2,0.3,0.9,0.1,1c-0.1,0.1-0.2,0.3-0.1,0.5c0.1,0.2,0.1,0.3,0.1,0.5
			c-0.1,0.2,0.4,0.4,0.5,0.6c0.3,0.8,1.2,1,1.6,1.6c0.3,0.4,0.4,0.9,0.7,1.3c0.2,0.3,0.8,0.5,1.1,0.8c0.4,0.6,1.5,0.9,1.7,1.6
			c0.1,0.4,0.7,0,0.7,0.2c0.3,0.6,0.8,0.4,1.3,0.9c0.4,0.6,1.2,0.6,1.5,1.3c0.4,0.7,1.5,1.1,1.9,1.8c0.3,0.5,1.4,0.5,1.8,0.9
			c0.5,0.4,0.9,1,1.3,1.7c0.2,0.4,0.8,0.7,1.2,1.1c0.1,0.1,0.1,0.3,0.2,0.4c0.1,0.1,0.5,0,0.6,0.1c0.4,0.5,1.7,1,1.8,1.6
			c0.1,0.2,0.9,1.3,1.2,1.3c0.4,0,1,0.1,1.2,0.4c0.3,0.4,0.9,0.4,1.1,0.8c0.5,0.7,0.3,0.3,1,0.4c0.3,0,0.8,0.6,0.9,0.9
			c0.3,0.5,1.4,1,2,1.1c0.6,0,0.8,0.5,1.4,0.6c0.3,0,1.1,0.5,1.3,0.7c0.7,0.5,1.6,0.4,2.2,1c0,0,1.1,0.2,1.2,0.2
			c0.5,0,1.1,0.2,1.6,0.4c0.6,0.3,1.4,0.7,2.1,0.7c0.1,0,2.1,0.4,2,0.1c0.1,0.2,1.9-0.1,2.2,0.2c0.2,0.2,2.3,0.6,2.3,0.6
			c0,0,1.9,0.6,2.1,0.6c0.6,0,1.7,0.4,2.3,0.3c0.8-0.2,1.8,0.3,2.4-0.2c0,0,1,0.1,1.1,0.1c0.5-0.1,0.9,0.2,1.3,0
			c0.5-0.2,1.2-0.4,1.8-0.4c0.4,0,1,0.4,1.3,0.1c0.4-0.3,2.1,0.6,2.4,0.1c0.3-0.6,0.9-0.1,1.3,0.1c0.3,0.1,0.9-0.2,1.2-0.2
			c0.3,0,0.9,0.1,1.1-0.1c0.1-0.1,0.6-0.5,0.7-0.4c0.5,0.2,2-0.1,2.4-0.3c0.9-0.4,1.7-0.2,2.6-0.4c0.5-0.1,0.5,0,0.9-0.2
			c0.2-0.1,1.1-0.3,1.3-0.3c0.7,0.1,1.7-0.4,2.2-0.7c0.4-0.2,1.3-0.2,1.6-0.7c0.8-1.3,3.2-0.7,4-2c0.2-0.3,0.7,0,0.9-0.3
			c0.2-0.2,0.7-0.6,1-0.8c0.6-0.3,1.6-0.5,2.1-1c0,0,1-0.4,1.1-0.4c0.4-0.1,0.6-0.3,1-0.5c0.2-0.2,0.6-0.3,0.8-0.4
			c0.3,0,0.5-0.7,0.9-0.8c0.7-0.3,1-1.1,1.6-1.2c0.5-0.1,1.3-0.7,1.6-1.1c0.1-0.2,0.6-0.4,0.8-0.5c0.2-0.1,0.4-0.5,0.6-0.7
			c0.6-0.6,1.5-1.1,2.1-1.8c0.6-0.6,1-1.4,1.7-1.9c0.3-0.2,0.2-0.5,0.4-0.7c0,0,0.5-0.2,0.6-0.3c0-0.1,0.3-0.6,0.4-0.6
			c0.6-0.5,1.6-1.3,2.1-2c0.1-0.1,0-0.6,0.1-0.6c0.2,0,0.4-0.2,0.5-0.4c0.2-0.3,0.6-0.5,0.7-0.8c0.2-0.4,0.6-0.7,0.7-1.2
			c0.1-0.4,0.7-0.4,0.7-0.9c0.1-0.4,0.7-1.3,1-1.5c0.5-0.4,0.4-1.2,0.8-1.7c0.4-0.5,0.3-1,0.5-1.5c0.1-0.3,0.4-0.8,0.6-1.1
			c0.1-0.1-0.1-0.3,0-0.5c0.2-0.3-0.1-0.6,0.1-0.9c0.2-0.2,0.4-0.6,0.7-0.8c0.3-0.3,0.4-0.8,0.9-0.9c-0.1,0,0.4-1.8,0.6-2
			c0.7-0.6,1.4-1.5,1.9-2.2c0.6-0.8,1.8-1.5,2.2-2.5c0.1-0.3,0.3-0.8,0.3-1c0-0.1,0.4-0.4,0.4-0.5C112.6,35.7,113.2,34.7,112.9,34.3
			C112.8,34.2,113,34.4,112.9,34.3z M110.2,33.9c0,1.2-0.4,2.7-1.1,3.6c-0.4,0.5-0.8,1.1-1.2,1.6c-0.6,0.7-1.4,1.3-2,2
			c-1.7,2.1-2.5,4.4-3.8,6.7c-0.6,1-0.7,2.1-1.3,3.1c-0.3,0.5-0.7,0.8-0.9,1.3c-0.3,0.7-1.1,0.9-1.3,1.7c-0.2,0.5,0,1-0.5,1.4
			c-0.4,0.4-0.6,0.8-1,1.3c-0.9,1.1-2.2,1.9-3.2,2.9c-1.6,1.6-3,3.4-5.1,4.5c-0.8,0.4-1.5,0.8-2.2,1.3c-0.6,0.2-0.9,0.6-1.3,1.1
			c-0.6,0.6-1.6,0.9-2.2,1.5c-0.8,0.7-2,1.1-3,1.6c-1.4,0.7-2.8,1.4-4.3,1.8c-0.6,0.2-1.2,0.1-1.7,0.6c-0.6,0.4-1.3,0.9-2,0.9
			c-1.5,0.4-2.9,0.5-4.4,0.9c-1.2,0.4-2.4,0.6-3.7,0.9c-0.8,0.2-1.6,0-2.4,0.1c-0.7,0.1-1.6,0.2-2.3-0.1c-0.6-0.2-1.7,0-2.3,0.1
			c-0.8,0.1-1.7,0.1-2.5,0.1c-1.5,0.1-3.2,0.4-4.7,0c-1-0.2-2.2-0.3-3.2-0.4c-1.4-0.1-2.9-0.5-4.3-0.9c-0.8-0.2-1.6-0.4-2.4-0.7
			c-0.5-0.2-1,0.2-1.4,0c-1.1-0.5-2.3-1-3.5-1.4c-1.3-0.5-2.7-1.1-4-1.8c-0.7-0.4-1.5-0.6-2.1-1c-0.6-0.3-1.4-1.2-2.1-1.3
			c-0.6-0.1-1.2-0.5-1.7-0.9c-0.5-0.4-1.2-0.7-1.6-1.1c-1.2-1-2.4-1.9-3.4-3.1c-0.5-0.6-0.7-1-1.3-1.3c-0.5-0.2-0.7-0.8-1.1-1.1
			c-0.6-0.3-1.1-0.5-1.6-1c-0.2-0.2-0.4-0.6-0.6-0.8C15.3,58,15,58.1,14.7,58c-0.7-0.4-1.3-1-1.9-1.6c-0.4-0.4-1.1-0.8-1.4-1.2
			c-0.4-0.5-1.1-0.6-1.5-1.1c-0.6-0.7-1.1-1.4-1.6-2.1c-0.9-1.1-1.5-2.7-1.3-4.2c0.1-0.5-0.2-1.3-0.2-1.7c-0.1-0.8,0.6-1.5,1-2.1
			c0.3-0.5,0.5-1,0.8-1.5c0.4-0.6,0.9-1.2,1.3-1.8c1.1-1.4,2.5-2.5,3.5-3.9c0.5-0.7,0.9-0.7,1.6-1c0.7-0.4,0.3-0.9,0.3-1.6
			c0-0.7,0.3-1.5,0.6-2.2c0.3-0.6,0.3-1.5,0.7-2c0.8-1.1,1.3-2.4,2-3.5c0.7-1.1,1.5-2.1,2.2-3.1c0.7-0.9,1.5-1.6,2.3-2.4
			c0.5-0.5,0.9-1.2,1.3-1.8c0.4-0.5,0.8-0.5,1.3-0.9c1-0.8,2-1.4,3.2-2c0.5-0.3,0.7-0.6,1.2-0.9c0.6-0.4,1.1-0.4,1.7-0.9
			c1-1,2.5-1.3,3.6-2.1c0.6-0.4,1-0.7,1.7-0.9c0.5-0.2,1.5-0.3,1.9-0.8c0.7-0.7,1.7-0.5,2.6-0.8c0.3-0.1,1.2-0.4,1.4-0.2
			c0.4,0.3,1,0.3,1.1-0.3c0.1-0.8,2.9-1.4,3.6-1.5c0.6-0.2,1.1-0.1,1.7-0.3c0.7-0.2,1.4-0.5,2.1-0.6c2.8-0.5,5.6-0.7,8.3-1.5
			c1.3-0.4,2.8-0.2,4.1-0.2c1.2,0,2.4,0.1,3.7,0.2c0.9,0.1,1.9-0.4,2.8-0.2c1.1,0.2,2.2-0.1,3.4,0.2c1,0.3,1.8,0.7,2.8,1
			c1,0.3,2,1.1,3,1.4c1.1,0.3,1.8,1.4,3,1.5c1.3,0.2,2.3,0.7,3.6,0.8c1.4,0.1,2.5,1,3.7,1.5c0.6,0.3,1.1,0.9,1.6,1.2
			c0.8,0.5,1.5,1,2.4,1.4c1,0.5,1.9,1.2,2.6,2c0.9,1,2,1.9,3,2.8c0.8,0.7,1.6,1.4,2.5,1.8c0.6,0.2,1.9,0.4,2.2,1
			c0.4,0.8,1.4,0.6,2,1c0.7,0.5,1.5,0.9,2,1.6c0.5,0.7,1,1.4,1.2,2.2c0.1,0.7,0.2,1.5,0.4,2.1c0.3,0.8-0.1,1.8,0.2,2.6
			C110.1,32.2,110.2,33,110.2,33.9C110.2,34.1,110.2,33.8,110.2,33.9z"/>
		<path d="M100.9,48.5c-0.4-0.2-0.6,0.5-0.2,0.6C101,49.1,101.3,48.7,100.9,48.5C100.8,48.5,101,48.6,100.9,48.5z"/>
		<path d="M103,43.4c-0.3-0.1-0.5,0.4-0.2,0.4C103,43.9,103.3,43.5,103,43.4C102.9,43.4,103,43.4,103,43.4z"/>
		<path d="M75.7,66c-0.2,0.6-0.3,0.3-0.7,0.7c-0.3,0.2,0.1,1,0.5,0.6c0.2-0.2,0.3-0.6,0.7-0.5c0.1,0,0.2-0.4,0.3-0.5
			C77,65.9,76.1,64.9,75.7,66z"/>
		<path d="M101.8,44.3c-0.2-0.4-0.8,0-0.4,0.4C101.6,45,101.9,44.5,101.8,44.3C101.8,44.2,101.8,44.3,101.8,44.3z"/>
		<path d="M104.6,41.3c-0.4,0.2,0,0.7,0.3,0.6C105.3,41.9,105.1,41.1,104.6,41.3C104.5,41.4,104.7,41.3,104.6,41.3z"/>
		<path d="M22.2,28.7c0.4,0.5,2.1-0.6,1.4-1.4C23,26.7,21.5,27.8,22.2,28.7C22.3,28.8,22.2,28.6,22.2,28.7z"/>
		<path d="M22.1,26.5c0.4,0.2,0.9-0.5,0.4-0.7C22.1,25.6,21.8,26.4,22.1,26.5C22.2,26.5,22.1,26.5,22.1,26.5z"/>
		<path d="M35.9,14.9c0.1,0,0.3-0.1,0.2-0.3C35.9,14.3,35.5,14.9,35.9,14.9C35.9,14.9,35.9,14.9,35.9,14.9z"/>
		<path d="M21.3,28.2c0.3,0.1,0.5-0.4,0.2-0.5C21.2,27.7,20.9,28.1,21.3,28.2C21.5,28.3,21.2,28.2,21.3,28.2z"/>
		<path d="M17.5,30.6c0.4,0,0.7-0.2,0.4-0.5C17.5,29.6,17,30.6,17.5,30.6C17.6,30.6,17.4,30.6,17.5,30.6z"/>
		<path d="M27.2,19c0.2,0,0.5-0.3,0.3-0.4C27,18.1,26.9,19,27.2,19C27.3,19,27.2,19,27.2,19z"/>
		<path d="M32.6,18.2c0.1,0.2,0.6,0,0.5-0.2C32.8,17.5,32.3,17.8,32.6,18.2C32.6,18.2,32.6,18.1,32.6,18.2z"/>
		<path d="M34,15c0.2,0,0.6,0.1,0.7-0.1c0-0.1,0.1-0.4-0.1-0.4C34,14.3,33.6,14.9,34,15C34.1,15,33.9,15,34,15z"/>
		<path d="M13,54.5c-0.5-0.1-0.8,0.5-0.4,0.5C12.9,55.1,13.4,54.6,13,54.5C12.9,54.5,13,54.5,13,54.5z"/>
		<path d="M28.6,20.2c0.5,0.2,1.4-1,0.7-1.1C29,19.1,28,20,28.6,20.2C28.7,20.2,28.5,20.1,28.6,20.2z"/>
		<path d="M27.9,21.2c0.3,0.1,0.4-0.3,0.3-0.4C28.1,20.3,27.2,20.9,27.9,21.2C28,21.2,27.8,21.1,27.9,21.2z"/>
		<path d="M62,70.2c-0.5-0.5-1,0.5-0.5,0.8C62.1,71.3,62.3,70.5,62,70.2C61.9,70.1,62.1,70.3,62,70.2z"/>
		<path d="M42.7,67.9c-0.1-0.5-1-0.7-0.9-0.1C41.9,68.3,42.9,68.7,42.7,67.9z"/>
		<path d="M51.8,69.6c-0.5-0.5-1.6,0.6-1.1,1.1C51.2,71.2,52.3,70.2,51.8,69.6z"/>
		<path d="M15.2,51.8c-0.4-0.1-0.6,0.5-0.2,0.6C15.5,52.6,15.8,51.9,15.2,51.8C15.1,51.8,15.3,51.8,15.2,51.8z"/>
		<path d="M58.8,69.5c-0.3,0-1.4,0.7-0.8,1.1C58.6,71,59.7,69.6,58.8,69.5C58.8,69.5,58.9,69.5,58.8,69.5z"/>
		<path d="M48.4,70.6c-0.6,0-1,0.5-0.7,1.2C48,72.6,49.1,70.6,48.4,70.6z"/>
		<path d="M79.8,64.1c0.5-0.1,0.1-0.7-0.2-0.4C79.4,63.9,79.6,64.1,79.8,64.1C79.9,64.1,79.8,64.1,79.8,64.1z"/>
		<path d="M16.8,53.7c-0.4,0-0.3,0.8,0,0.8C17.4,54.5,17.4,53.6,16.8,53.7z"/>
		<path d="M21.8,61.7c-0.2,0-0.4,0-0.4,0.2C21.3,62.6,22.3,61.8,21.8,61.7z"/>
		<path d="M41.9,68.3c-0.4-1-0.9,0.5-0.7,1c0.1,0.3,0.7,0.2,0.8,0.1C42.4,69.2,42,68.5,41.9,68.3C41.8,68.2,41.9,68.5,41.9,68.3z"/>
		<path d="M34.9,67.4c-0.5-0.4-0.2-0.4-0.3-0.8c-0.2-0.5-1.2-0.2-1.1,0.3c0,0.5,0.3,1.3,0.9,1.4C34.7,68.2,35.4,67.8,34.9,67.4
			C34.8,67.3,35,67.4,34.9,67.4z"/>
		<g>
			<path d="M43.7,49.1c-0.1,0.1,0,0.2,0.1,0.1C43.8,49.1,43.8,49,43.7,49.1z"/>
			<path d="M58.1,43.2C57.9,43.3,58.2,43.1,58.1,43.2L58.1,43.2z"/>
			<path d="M75.1,33.4c0,0.4,0.3,0,0.4,0c0.1,0,0.9,0.2,1,0.3c0.3,0.1,0.9-0.4,1.1-0.3c0,0,0.9,0,1-0.1c0.2-0.2,0.9-0.2,1.1-0.3
				c0.1,0,0.7-0.2,0.7-0.3c0,0,0.8-0.3,0.8-0.2c0.2,0.1,0.4-0.7,0.6-0.7c-0.1-0.6,0.2-1.5-0.3-2c0,0-0.1-0.3-0.1-0.3
				c-0.1-0.2-0.4-0.2-0.5-0.3c0,0-0.7-0.3-0.7-0.3c-0.2,0-0.4-0.4-0.5-0.4c-0.2,0-0.4,0.1-0.6,0.1c-0.3,0-0.5,0.3-0.7,0.3
				c-0.2,0-0.4,0-0.6,0c-0.4,0-0.8-0.1-1.1,0.3c-0.1,0.2-0.5,0.2-0.5,0.5c0.1,0.3-0.7,1.2-0.9,1.4c-0.4,0.3-0.6,1-0.6,1.5
				c0,0.2,0.1,0.4,0.1,0.6C74.9,33.3,75.1,33.3,75.1,33.4z"/>
			<path d="M84.3,27.2c0.2,0,0.1-0.1,0-0.2C84.1,27,84.1,27.3,84.3,27.2z"/>
			<path d="M107.2,31.1C107.3,31.1,107.2,31,107.2,31.1L107.2,31.1z"/>
			<path d="M84.3,26.5c0-0.2-0.3-0.1-0.2,0C84.1,26.6,84.3,26.6,84.3,26.5z"/>
			<path d="M84.1,25.4c0-0.1-0.3-0.2-0.3,0C83.9,25.6,84.1,25.4,84.1,25.4z"/>
			<polygon points="19,52.4 19,52.4 19,52.4 			"/>
			<path d="M83.7,24.9c0,0-0.3,0.2-0.1,0.2C83.9,25.1,83.8,24.8,83.7,24.9z"/>
			<path d="M84,34.7c0.2,0,0.2-0.3,0-0.2C84,34.5,84,34.7,84,34.7z"/>
			<path d="M102.7,36.5c-0.6-0.3-0.7,0.2-1,0.5c-0.3,0.3,0.3,0.8,0.3,1c0.3,0.3,0.8,0.1,1.1-0.1c0,0,0.2-0.5,0.2-0.5
				C103.2,37.1,103.1,36.7,102.7,36.5z M102.5,37.3c-0.4-0.1-0.3,0.4,0,0.4c-0.6,0.2-0.3,0-0.3-0.4c0-0.4-0.6-0.6,0.1-0.6
				c0.9-0.2,0.2,1,0.7,0.8C102.8,38,102.7,37.4,102.5,37.3z"/>
			<polygon points="104.2,38.6 104.2,38.6 104.2,38.6 			"/>
			<path d="M102.4,37.2c0.2,0,0.3-0.3,0.1-0.3C102.3,36.8,102.1,37.2,102.4,37.2z"/>
			<path d="M91.6,38.8C91.5,38.8,91.6,38.9,91.6,38.8C91.7,38.8,91.6,38.8,91.6,38.8L91.6,38.8z"/>
			<path d="M83.3,38.4C83.3,38.4,83.4,38.5,83.3,38.4C83.5,38.4,83.4,38.4,83.3,38.4z"/>
			<path d="M107.2,31.1c-0.6-0.8-1.3-1.1-1.1-2.3c0.1-0.4,0.9-1.3,0.6-1.6c-0.3-0.4-1.1,0.3-1.3,0.6c-1,1.5-1.9-0.6-1.1-0.7
				c0.4,0,0.9-0.7,0.4-0.9c-0.4-0.2-1.5-0.2-1.5,0.4c0,0.3,0.3,1.3-0.4,0.9c-0.3-0.2-0.3-0.8-0.2-1.1c0.2-0.6-1-0.7-1.1-1
				c-0.3-0.7-0.6-1.3-1.3-1.7c-0.7-0.4-0.9-0.2-1.6-0.1c-0.4,0-1.5-0.2-1.2-0.9c0.2-0.5-0.2-0.2-0.5-0.3c-0.3-0.1-0.2-0.8-0.6-1
				c-0.4-0.3-0.2-0.5-0.5-0.8c-0.5-0.5-0.5,0.5-0.7,0.7c-0.5,0.4-0.4-0.5-0.3-0.7c0.1-0.3-1-0.7-0.9,0.1c0,0.7-0.6-0.4-0.7-0.4
				c-0.2-0.7-0.5-1.3-1.3-1.4c-0.5,0-0.9-0.4-1.3-0.7c-0.9-0.6-1-1-2.1-1.1c-0.5,0-0.7-0.4-1.2-0.3c-0.3,0-0.7-0.2-1-0.3
				c-0.5-0.1-0.8,0.1-1.2,0.1c-0.6,0-1,0.2-1.6,0.1c-0.5,0-1-0.8-1.5-0.9c-0.3-0.1-1.3-0.5-1.6-0.4c-0.1,0-1.4,0.5-1.1-0.1
				c0.3-0.9,2.7-0.5,2.2-1.7c-0.3-0.6-1.8,0.2-2.1,0.5c-0.2,0.3-0.6-0.2-0.9-0.1c-0.6,0.1,0.2,1-0.4,0.9c-0.4,0-0.3-0.9-1.1-0.7
				c-0.6,0.1-0.3-0.7,0-0.9c0.5-0.4,0.3-0.3,0.9-0.2c0.7,0.1,0.5-0.1,0.7-0.5c0,0,0.4-0.2,0.4-0.3c0.1-0.3-0.3-0.9-0.5-0.5
				c-0.2,0.3-0.1,0.8-0.6,0.6c-0.3-0.1-0.6,0.1-0.9,0.2c-0.1,0-0.5-0.3-0.7-0.4c-0.6-0.3-0.6,0.3-1.1,0.2c-0.8-0.1,0-0.6,0-0.9
				c0-0.8-0.7,0-0.8,0.3c-0.2,0.8-1.1-0.4-1.3-0.5c-0.6-0.2-0.8-0.2-1.5-0.1c-0.8,0.1-1.1-0.1-1.9-0.3c-0.5-0.1-0.7-0.7-1-0.7
				c-0.3,0-1.2,0-1.5,0.1c-0.2,0.1-0.8-0.5-0.9-0.6c-0.3-0.4-0.7,0-0.5,0.1c0.4,0.3,0,0.6-0.1,0.4c-0.6-0.8-0.7,0.4-1.4,0.2
				c-0.5-0.1-0.3-0.5-0.7-0.7c0.3,0.2-1.1,0.7-1.1,0.7c-0.1,0.1-1.7,0.5-1.8,0.4c-0.4-0.2-0.8-0.3-1,0.3c-0.2,0.8-0.9,0.1-1.2,0.5
				c-0.4,0.7-1,0.1-1.6,0.1c-0.3,0-1-0.3-0.9,0.2c0.1,0.8-0.3,0.1-0.8,0.5c-0.3,0.3-0.4,0-0.7-0.1c-0.3-0.1-1,0.4-1.4,0.4
				c-0.4,0.1-0.7,0.4-1.1,0.3c-0.2-0.1-0.4-0.1-0.6-0.1c-0.4,0-0.5,0.4-0.9,0.4c-0.4,0-0.9,0-1,0.4c-0.2,0.8-0.9,0.2-0.7-0.5
				c0.1-0.5-1.1,0.2-1.2,0.2c-0.5,0.2-1.1-0.2-1,0.7c0.1,0.6-1.4,1.2-1.9,1.2c-0.5,0-0.9,0.7-1.3,0.6c-0.7-0.1-0.2-0.4-0.3-0.8
				c-0.1-0.6-1.2-2-1.6-0.6c-0.4,1.2-1.5,1.4-2.7,1.8c-0.6,0.2-0.8,0-1.3,0.5c-0.2,0.2-0.6-0.3-0.9-0.1c-0.5,0.2,0,0.5-0.2,0.7
				c-0.4,0.5-0.7,0.3-1.3,0.5c-0.3,0.1,0,0.8-0.5,0.5c-0.7-0.6-1.5,0.2-0.8,0.5c0.4,0.2-0.9,0.6-0.9,0.6c-0.3,0.2-0.3,0.3-0.5,0.7
				c-0.1,0.2-0.4,0.1-0.5,0.2c-0.4,0.3-0.4,0.8-0.9,0.6c-0.5-0.2-1.1,0.1-1.4,0.4c-0.3,0.4,0,0.8-0.2,1c-0.1,0.2-0.6-0.2-0.8-0.3
				c-0.7-0.1,0.3,1.3-0.4,1.4c-0.5,0-0.8,0.3-1,0.8c-0.1,0.2-0.7,0.8-0.9,0.9c-0.4,0.2-1,0-1.4,0.2c-0.5,0.3-0.8,0.8-0.5,1.3
				C25,27,25.5,26,25.8,26c0.3,0-1.7,2.6-1.7,2.9c0,0.5-0.9,0.5-0.7,1.1c0.3,0.9-0.5-0.1-0.6-0.1c-0.5-0.1-0.8,0.7-0.3,0.9
				c0.9,0.5,0.2,0.4-0.3,0.7c-0.6,0.3-1.1,0-1.5,0.7c-0.1,0.1-0.9,1.3-1.1,0.9c-0.7-1.3-0.7,0.6-1,0.6c-0.7,0-0.3,2.3-1,2.9
				c-0.5,0.3-1.1,0.1-1.6,0.6c-0.3,0.3,0.3,0.6,0.1,0.9c-0.2,0.3-0.7,0.5-0.9,0.8c-0.2,0.3-0.2,0.5-0.2,0.9c0,0.3-0.4,0.3-0.5,0.5
				c-0.2,0.3,0,0.5-0.1,0.7c-0.2,0.4-0.4,0.7-0.6,1c-0.1,0.2-0.4,0-0.4,0.3c0,0.2,0,0.4-0.1,0.6c-0.7,0.8-1.7,1.3-1,2.4
				c0.2,0.3,0,0.7,0.5,0.8c0.2,0,0.7,0.1,0.6,0.3c-0.1,0.4-0.2,0.6,0,1c0.5,1,0.9-0.7,1-0.8c0.7-1.4,2.6,0.6,1.9,0.7
				C16,47.6,15,47,15,47.7c0,0.7,0.6,1.1,1.3,1c0.4-0.1,0.9,0.2,0.7,0.7c-0.2,0.3-0.1,0.5,0.2,0.8c0.1,0.2-0.3,0.4-0.1,0.7
				c0.2,0.4,0.6-0.1,0.8,0.1c0.4,0.3,0,1.2-0.5,1.3c-0.3,0-1.3-0.3-1.2,0.4c0.1,0.6,1.1,0.4,1.4,0.8c0.3,0.4,0.3,1.3,0.5,1.7
				c0.2,0.5,0.8,1.2,0.5,1.7c-0.8,1.3,1.3,1.4,0.6,0.6c-0.4-0.5,0.4-0.5,0.6-0.3c0.5,0.6,0.2,1.3,0.4,1.8c0.2,0.4,0.1,0.9,0.5,1.2
				c0.4,0.2,1,0.4,1.1,1c0.3,0.5,0.5,0.2,0.9,0.5c0.6,0.4,1.3,0.7,2,0.8c0.3,0.1,0.7,0.1,0.8,0.4c0,0.2,0,0.4,0.2,0.5
				c0.3,0.2,1.4,0.4,1.5,0.6c0.3,0.7,0.4,1.1,1.3,1c0.8-0.2,1.4,0.2,1.2,1c-0.2,0.9,0.7,0.3,1,0.3c0.2,0,0.3,0.9,0.6,0.5
				c0.2-0.3,0-1,0.7-1c0.6,0,1.3,0.2,1.9,0.3c0.4,0,1,0,1.3,0.3c0.2,0.3-0.3,1.1,0.3,1.2c0.3,0.1,1.3,0.6,1.3,0.4
				c0-0.9,0.8-0.5,1.3-0.3c0.3,0.1,0.6,0,0.9,0.2c0.2,0.1,0.3,0.3,0.5,0.4c0.4,0.2,1,0,1.4-0.3c0.3-0.3,1.4-1.1,1.9-0.8
				c0.2,0.1,0,0.4,0.2,0.6c0.3,0.3,0.7,0.3,1,0.6c0.3,0.4,0.1,0.3,0.2,0.6c0.1,0.2,0.4,0.1,0.5,0.3c0.4,0.5-0.9,0.7-0.2,1.1
				c0.3,0.2,0.7-0.5,1,0c0.4,0.7,1-0.5,1.4-0.4c0.4,0.1,0.7-0.8,1-0.6c0.3,0.3,0.3,0.8,0.8,0.8c0.6,0,0.5,0.4,0.8-0.3
				c0.3-0.7,1.2,0.2,1.7-0.3c0.3-0.3,0.6-0.1,1-0.3c0.2-0.1,0.5,0,0.6-0.2c0.1-0.2,0-0.5,0.1-0.7c0.4-0.5,0.3,0.4,0.7,0.3
				c0.1,0,0.1-0.1,0.1-0.2c0.1-0.3,0.5,0.1,0.7,0c0.6-0.4,0.8-0.6,1.6-0.3c0.6,0.2,0.9,0,1.4-0.1c0.5-0.1,0.9,0.2,1.3,0.2
				c0.2,0,0.2-0.3,0.4-0.4c0.7-0.3,1.4,0.7,2.2,0.3c0.5-0.3,1.2-0.4,1.3,0.3c0,0.4,0.6,0.7,0.8,0.3c0.2-0.3,0.3-0.7,0.7-0.6
				c0.4,0,0.5,0.5,0.8,0c0.1-0.3,1.3-1,1.5-0.6c0.5,0.7,0.5-0.1,0.9-0.1c0.7,0,0.7,0.2,1.4-0.2c0.4-0.2,0.8,0.9,1.5,0.7
				c0.2-0.1,0.4-0.9,0.9-1.1c0.3-0.2,0.7-0.8,1.1-0.5c0.5,0.3,0.1,0.6-0.3,0.6c-0.8,0.2,0.2,0.6,0.6,0.6c0.1,0,1.3-0.9,1.3-1
				c0.2-0.6,0.4,0.1,0.7,0.2c0.5,0.1,0.2-0.9,0.5-1.1c0.5-0.2,0.5,0.3,0.8-0.1c0.5-0.7,0.4-0.2,0.8,0c0.2,0.1,0.9-0.2,0.9-0.5
				c0.1-0.5,0.6-0.4,0.9-0.8c0.1-0.2,0.1-0.4,0.2-0.5c0.2-0.2,0.5-0.2,0.7-0.5c0.2-0.2-0.3-0.7,0-0.9c0.7-0.3,0.8,0.2,1.3,0.5
				c0.2,0.1,1,0.6,1.1,0c0.1-0.5-0.9-0.7-0.6-1c0.1-0.1,0.5-0.9,0.6-0.4c0.1,0.4,0.6,0.6,0.6,0.1c0-0.3-0.8-0.7,0.1-0.8
				c0.6,0-0.1,0.8,0.9,0.5c0.6-0.2-1.1-1.4,1-1.3c0.2,0,0.1,0.8,0.6,0.4c0.4-0.3-0.4-0.8,0.4-0.9c0.4-0.1,1.6-0.1,1.5-0.6
				c0-0.5,0.2-0.7,0.7-0.7c0.5,0,0.6,0.5,0.9-0.3c0.2-0.7,0.5-0.2,1.1-0.2c0.7,0,0.9-0.4,0.8-1c0-0.3-0.4-0.4-0.4-0.7
				c0.1-0.7,0.5-0.9,1.2-0.9c0.5,0,0.1-0.5,0.3-0.7c0.3-0.3,0.6,0.1,0.8-0.6c0.1-0.5,0.6-0.2,0.7-0.7c0.1-0.6-0.2-1.1,0.5-1.4
				c0.3-0.1,0.7-0.2,1-0.3c0.5-0.2,0.7-0.6,1.1-1c0.5-0.4,1-0.8,1.6-0.6c0.8,0.2,0.3-0.8,1-1c0.7-0.2,0-0.7,0-1
				c-0.1-0.5,0.7-0.3,1-0.4c0,0-0.3-0.7,0-1c0.5-0.4,0.6,0,0.7-0.9c0.1-1.2,0.8-2.3,1.1-3.4c0.1-0.3,0.6-0.3,0.5-0.8
				c-0.2-0.4,0.5-0.4,0.7-0.3c0.4,0.1,0.5-0.5,0.8-0.3c0.5,0.4,0.8-0.2,1-0.6c0.1-0.1,0.2-1.1,0.2-1.2c0.3-0.2,1.1,0,1.2-0.4
				c0.2-0.6,0.4-0.9,0.7-1.4c0.3-0.4,0.6-0.7,0.7-1.2c0-0.5-0.7-0.3-0.9,0c-0.3,0.4-0.8,0.8-1,1.3c-0.1,0.3-0.7,0-0.6-0.2
				c0.2-0.4,0.6-1,0.5-1.5c-0.1-0.7-0.6-0.4-0.1-1.1c0.2-0.3-0.3-0.7,0.1-1.2C105.5,32.5,108,32.1,107.2,31.1z M17.8,48.9
				c-0.1,0.2-0.7,0.3-0.5-0.2C17.5,48.4,18,48.6,17.8,48.9z M81.9,22.3c0.1,0,0.2-0.5,0.2-0.6c0.4-0.5,0.8-0.8,1.4-0.8
				c0,0,0.1,0,0,0c0.3,0,0.8,0.1,1,0.3c0.3,0.3,0.3,0.3,0.5,0.8c0.1,0.2,0.1,1,0.2,1.2c0.1,0.1,0.3,1.1,0.3,1.3c0,0.5,0,1,0,1.4
				c0,0.3-0.2,1.2-0.6,1.2c-0.3,0-0.5,0.5-0.8,0.3c-0.1-0.1-0.4-0.3-0.4-0.5c0,0,0.2-0.5,0.1-0.4c0.1,0,0.2,0.1,0.2,0
				c0,0.2-0.6-0.4-0.2-0.4c0,0,0.5,0.4,0.5,0c0-0.2-0.4-0.1-0.4-0.3c0,0-0.1-0.4-0.1-0.4c0,0-0.2,0-0.3,0c-0.1-0.1,0-0.3-0.1-0.3
				c-0.3-0.2,0.1-0.7-0.1-0.9c-0.1-0.1-0.9-0.2-0.8-0.5c-0.1-0.2-0.2-0.4-0.3-0.5C82.1,22.8,81.7,22.4,81.9,22.3z M43.9,27.6
				c0.1-0.1,0.5-0.4,0.7-0.4c0,0,0.3-0.3,0.2-0.3c0.3-0.3,0.3-0.4,0.7-0.4c0.4,0,1.3,0.1,1.5,0.5c0.1,0.2,0.3,0.8,0.5,0.9
				c0.4,0.2,0.1,1.3,0,1.1c0.5,0.5-0.3,0.2-0.3,0.5c0,0.2,0.1,0.1,0,0.3c0,0-0.3,0-0.3,0.1c0,0,0.1,0.2,0.1,0.1
				c-0.1,0.1-1.5,0.2-1.8,0.2c-0.7,0-1-0.2-1.4-0.7C43.5,29.2,43.1,27.7,43.9,27.6z M19,52.4C19,52.4,19,52.4,19,52.4
				C18.9,52.5,18.9,52.4,19,52.4c-0.7,0.4-1.2-0.4-0.7-1C18.7,51,19.3,52.2,19,52.4z M43.8,49.6C43.9,49.5,43.7,49.7,43.8,49.6
				L43.8,49.6z M43.9,49.5c0-0.1-0.5,0-0.3,0.1c0.3,0.3-0.2,0.2-0.1,0.4c0,0.1-1.6,0.4-1.7,0.4c-0.3,0-0.5,0.2-0.8,0.2
				c-0.3,0-0.4,0.1-0.7,0.2c-0.2,0.1-0.6,0-0.8,0.3c-0.1,0-0.5,0.1-0.5,0c0-0.1-0.1-0.3-0.2-0.3c-0.2,0-0.4,0.2-0.7,0
				c-0.2-0.2-0.1-0.6-0.3-0.7c-0.2-0.2,0-0.7,0.1-1c0-0.2,0.3-0.3,0.4-0.4c0.1,0,0.1-0.3,0.2-0.4c0.3-0.2-0.3-1.1-0.3-1.4
				c-0.4-0.2-0.3-1.1-0.3-1.4c0-0.3,0.1-0.6,0.1-1c0-0.2-0.2-0.4-0.2-0.6c0-0.2-0.1-0.6-0.3-0.7c-0.2-0.2-0.1-1-0.1-1.3
				c0-0.1,0.1-0.7,0.2-0.8c0.1-0.1-0.1-1.1-0.1-1.2c0-0.4,0.2-0.6,0-1.1c-0.1-0.2,0-0.6-0.2-0.8c0,0-0.5-0.6-0.6-0.6
				c-0.3,0.1-0.5-0.3-0.6-0.4c-0.1-0.1-0.9-0.3-0.8-0.4c-0.1,0.1-0.1,0.3,0,0.3c-0.2,0.1-0.2-0.1-0.3-0.1c-0.1,0,0.1,0.4-0.3,0.4
				c-0.1,0-0.2-0.1-0.1,0.1c0,0.1-0.5-0.1-0.5,0.2c0,0.5-0.3,1-0.4,1.5c0-0.1-0.3,0.3-0.3,0.3c-0.1,0.1-0.3,0.3-0.2,0.4
				c0,0.2-0.2,0.6-0.2,0.9c0,0.3-0.2,0.7,0,1c0,0.2,0.2,0.5,0.2,0.6c0,0.3,0.2,0.5,0.4,0.7c0.1,0.2,0.2,1,0.2,1.3
				c0,0.5,0.6,1.6,0.1,2.1c-0.3,0.2,0.4,1.5,0.5,1.7c0.1,0.1,0.6,1.1,0.5,1.2c-0.2,0.3,1.6,0.3,1.6,0.3c0.2,0.2,0.4,1.7,0.3,1.7
				c0,0-0.3,0-0.3-0.1c0,0-0.2,0.3-0.1,0.3c-0.1,0-0.4,0.5-0.4,0.4c-0.3-0.3-1.2,0-1.4,0.3c-0.1,0.2-1,0.3-1.2,0.3
				c-0.1,0-0.8,0-0.8,0c-0.1,0.1-0.6,0.1-0.8,0.3c-0.1,0.1-0.6,0.2-0.8,0.2c-0.5,0-0.5-0.1-0.7-0.4c-0.1-0.1-0.4-0.6-0.2-0.7
				c0.3-0.3,1-0.9,1.2-1.3c0.1-0.1,0.1-0.8,0.4-0.7c0.4-0.3,0.1-0.7,0.2-1.2c0-0.1-0.5-0.9-0.5-0.9c-0.2,0-0.2-0.3-0.1-0.4
				c0.1-0.1-0.1-0.2-0.1-0.3c0-0.3,0.5-0.3,0.5-0.4c0-0.2-0.1-0.6-0.4-0.3c0.1-0.1-0.3-0.8-0.4-0.9c-0.2-0.2-0.2-1.2,0-1.4
				c0-0.3,0.1-0.7-0.2-0.9c-0.1-0.1-0.2-0.9-0.2-1c0-0.2-0.3-1.2,0.1-1.4c0.1-0.1,0.2-0.9,0.2-1.1c0-0.2-0.3-0.8-0.6-0.7
				c0,0-0.8-0.3-0.8-0.3c-0.3-0.4-1.7,0-1.8,0.4c-0.1,0.2-0.5,0.5-0.6,0.7c-0.1,0.1-0.2,0.6-0.3,0.6c-0.4,0.3-0.2,1.5-0.4,1.6
				c-0.3,0.1-0.5,1.1-0.6,1.4c-0.1,0.2,0,1,0.3,1.2c0.1,0.1,0.5,0.6,0.5,0.7c0,0.2,0.2,0.5,0.2,0.7c0,0.1,0,0.7-0.1,0.8
				c0,0.3-0.2,0.9,0.1,1.1c0.1,0.1,0.2,0.5,0.2,0.7c0,0.5-0.1,2,0.3,2.4c0.2,0.2,0.2,0.5,0.4,0.6c0.2,0,1,0,1,0.3
				c0,0.2,0.2,0.5,0.2,0.7c0,0.1,0.1,0.5,0,0.5c-0.1,0-0.2,0.1-0.2,0.2c-0.2,0.2,0.3,0.2,0.1,0.4c0,0-0.4,0.3-0.4,0.1
				c0,0.2-0.5,0.4-0.5,0.4c-0.5,0-0.9,0.8-1.4,0.7c-0.4-0.1-0.9,0.4-1.2,0.4c-0.3,0-0.6,0.3-0.9,0.3c-0.2,0-0.5-0.2-0.6,0
				c-0.1-0.1-0.4-0.1-0.6,0.2c-0.3,0.3-0.3,0-0.3,0c-0.3,0.1-0.3,0-0.3,0c-0.2-0.2-0.5,0-0.8,0c-0.1,0-0.5-0.2-0.6-0.3
				c-0.2-0.2-0.3-1.1,0-1.3c0.2-0.1,0.4-0.2,0.6-0.3c0.1-0.1,0.7-0.3,0.7-0.6c0-0.4,1-0.6,1.3-0.6c0.7-0.1,0.2-1.4,0.2-1.7
				c0-0.7-0.1-1.5-0.1-2.2c0-0.6-0.2-1.3-0.2-1.9c0-0.4,0.7-1.2,0.2-1.6c-0.2-0.1-0.2-0.7-0.5-0.8c-0.2-0.2-0.7-0.6-0.4-0.9
				c0.2-0.3,0.4-1,0.4-1.4c0-0.2,0-0.8-0.3-1c0-0.2-0.5-0.5-0.5-0.7c0-0.3-0.8-0.2-0.7,0.1c0,0.2-0.6-0.1-0.7,0.1
				c-0.2,0-0.5,0.1-0.7,0c-0.2-0.2-0.7-0.1-0.8-0.3c-0.7,0-0.5-1.2-0.5-1.6c0.1-1,2.5-1.1,3.1-1.1c0.3,0,0.9,0,1.1,0.2
				c0.1,0.1,0.7,0.3,0.8,0.4c0.4,0.5,1.8-1.1,2.1-1.4c0.3-0.3,0.6-0.1,0.6-0.6c0-0.1,0.4-0.5,0.5-0.5c0.6,0,1.1,0,1.7-0.1
				c0.2,0,0.4,0.2,0.6,0.2c0.3,0,0.6,0.3,0.9,0.4c0.1,0.1,0.3,0.6,0.4,0.6c0.6,0,0.6,0,1-0.3c0.1-0.1,0.2-0.2,0.4-0.2
				c0.4,0.1,0.3-0.2,0.5-0.4c0.1-0.1,0.4-0.3,0.5-0.5c0.1-0.1,0.4-0.6,0.4-0.6c0.2-0.5,1.2-0.5,1.5-0.8c0.5-0.6,1.5-0.1,2.1-0.1
				c0.5,0,1.2,0.6,1.5,0.8c0.1,0,0.7,1.2,0.8,1.3c0.3,0.3,0.4,1.2,0.5,1.6c0,0.7,0.2,1.4,0.3,2c0,0.3,0.2,0.6,0.2,0.9
				c0,0.2-0.1,0.5-0.1,0.7c0,0.3-0.1,0.5,0,0.8c0,0.3,0.3,0.6,0.4,0.9c0,0.1,0.1,0.7,0.1,0.7c0,0,0.3,0.8,0.3,0.7c0,0,0.1,0.9,0,0.8
				c0.2,0.1,0.3,0.4,0.3,0.6c0,0.1,0.4,0.5,0,0.6c0,0,0,0.8,0,0.8c0,0.5,0.3,0.4,0.4,0.8c0,0.2,0.5,0.6,0.6,0.7
				c0.2,0.2,0.6-0.1,0.7-0.2c0.3-0.5,0.7,0.1,0.8,0.3c0.4-0.1-0.2,0.6-0.2,0.4c0,0.2,0.2,0.3,0.3,0.4c0,0,0.1,0.1,0.1,0.1
				C44,49.4,43.9,49.2,43.9,49.5z M44,49C44.2,49,43.9,49.1,44,49L44,49z M54.6,47.1c-0.2,0.3-0.8,0.6-1.2,0.7
				c-0.7,0-1.5,0.3-2.2,0.3c-0.2,0-0.5,0.1-0.8,0.1c-0.1,0.2-0.6,0.1-0.8,0.2c-0.2,0.1-0.8,0.1-1.1,0.1c-0.3,0-0.5,0.3-0.7,0.3
				c-0.7,0-1.5,0-2.2,0.1c-0.1,0-0.8-0.2-0.8-0.3c-0.1-0.3-0.6-0.8-0.3-1.1c0.1-0.1,0.1-0.5,0.2-0.7c-0.1-0.2,0.4-0.3,0.5-0.4
				c0.4,0.1,0.5-0.2,0.8-0.2c0.3,0,0.7-0.1,1-0.1c0.4-0.1,0.9,0,0.9-0.4c-0.1,0-0.2-0.8-0.2-0.9c0-0.2-0.2-0.7-0.2-0.9
				c0-0.4,0.3-0.7,0.3-1c-0.2-0.1-0.4-1.9-0.2-2.1c0.3-0.3-0.6-1.3-0.6-1.7c0-0.5-0.1-1-0.1-1.5c0-0.2,0.2-0.7-0.1-0.9
				c0-0.1-0.3-0.9-0.1-1c0-0.1-0.1-0.9-0.1-0.9c-0.4-0.4-1,0.1-1.4,0.1c-0.6-0.1-0.9,0.1-1.3-0.4c-0.4-0.5,0.5-1.1,0.8-1.4
				c0,0,1.2-0.1,1.3-0.1c0.3,0,0.1,0.3,0.5-0.1c0-0.1,0.2-0.3,0.2-0.3c0.1-0.1,0.6-0.5,0.7-0.5c0.4-0.1,0.8,0.2,1.1,0.1
				c0.3-0.1,0.2,0.9,0.2,1c0.6,0.5,0.5,1.4,0.5,2.1c0,0.1,0,1.1,0,1.2c0.1,0,0.2,0.8,0.2,0.9c0,0.2,0.5,0.4,0.4,0.7
				c0,0.1,0.2,0.7,0.2,0.7c0.2,0.3,0.3,1.3,0.1,1.5c0.1,0.2-0.2,0.8-0.1,0.9c0.3,0.2,0.2,0.3,0.1,0.3c-0.2,0.1,0.2,0.2,0.2,0.2
				c0,0.1-0.1,0.3,0,0.4c0.1,0,0,0.7,0.1,0.8c0.1,0.1,0.3,0.7,0.3,0.9c0,0.1,0.2,0.9,0.1,0.8c0.1,0.1,0.3,0.2,0.4,0.3
				c0,0,0.1,0.4,0.2,0.4c0.2,0,0.5-0.4,0.7-0.2c0.2,0.2,0.9,0.1,1.1-0.1c0.2,0,0.3-0.4,0.6-0.2c0.1,0.1,0.3,0,0.4,0.1
				c0.1,0.1,0.3,0,0.5,0.1c0.1,0.1,0,0.2,0.1,0.3C55.2,45.6,54.8,46.8,54.6,47.1z M50.2,41c0,0,0-0.1,0.1-0.1
				C50.4,40.9,50.2,41.1,50.2,41z M73.5,43.4c-0.1,0.1-0.1,0.3-0.4,0.4c-0.1,0-0.5,0.2-0.6,0.2c-0.1,0-0.9,0.1-1,0.3
				c-0.2,0.2-1.2,0.2-1.4,0c-0.2-0.1-1,0.1-1.2,0.2c-0.3,0.1-0.5,0.3-0.9,0.3c-0.7,0-1.4,0.8-2,0c0.1,0.1-0.5-0.1-0.3-0.2
				c0,0-0.3-0.2-0.3-0.3c0-0.2,0.1-0.4,0.2-0.6c0.2-0.2,0.2-0.2,0.2-0.5c0-0.4,0.5-0.4,0.5-0.8c0-0.2,0-1-0.3-1.2
				c-1.1-0.9-1.8-2-2.9-3c-0.4-0.4-1.6,0.2-1.6,0.8c0,0.2-0.1,0.1-0.2,0.1c-0.1,0,0.1,0.2,0.1,0.3c0,0.3,0,0.8,0,1.2
				c0,0.7,0,1.2,0.1,1.9c0.1,0.7,0.3,0.6,1.1,0.5c0.2,0,0.7-0.2,0.8-0.1c0.6,0.4,0.8,0.6,0.9,1.3c0,0.2-0.3,0.6-0.4,0.8
				c0-0.1-0.2,0-0.3,0.1c-0.1,0.1,0,0.3-0.2,0.4c-0.1,0-0.3-0.6-0.5-0.2c-0.2,0.2-0.4,0.3-0.7,0.3c-0.3,0-0.6,0.4-0.9,0
				c0,0.1-1.1,0.2-1.1,0.5c0,0.3-1.6,0.2-1.8,0.2c-0.1,0-0.3,0.2-0.4,0.2c-0.2,0.1-0.6-0.1-0.9-0.1c-0.3,0-1.2-0.5-1.3-0.8
				c-0.1-0.2,0.1-0.7,0.1-0.9c0-0.3,0.4-0.4,0.5-0.6c0.1-0.2,1.9-0.5,1.6-0.7c-0.1-0.1,0-1.5,0.2-1.6c0.1-0.1,0.1-0.8,0.1-0.9
				c0-0.3,0-0.4,0-0.7c0-0.2-0.4-0.4-0.4-0.6c0-0.1,0.1-0.6-0.1-0.7c-0.5-0.3-0.2-1.4-0.5-1.6C57,36.9,57,36,56.8,35.7
				c-0.3-0.2,0.2-0.8-0.1-1c0,0-0.3-0.5-0.3-0.6c0.1-0.7,0.2-1.2,0.2-1.9c0-0.3-0.3-1.2-0.5-1.4c-0.3-0.3-0.2-0.9-0.3-1.2
				c0-0.1-0.1-0.8-0.2-0.8c0-0.1-0.2-0.7-0.1-0.7c-0.1-0.1-0.2,0-0.2-0.2c0-0.1,0.1-0.3,0.2-0.2c-0.2-0.2-0.2,0.1-0.3,0
				c0,0-0.3-0.5-0.3-0.6c0-0.1,0-0.5-0.1-0.6c0,0,0.1-0.8-0.1-0.8c-0.4,0-1.7,0.2-1.8,0c-0.2-0.2-0.8-0.3-0.8-0.8
				c0-0.5,0.5-0.8,0.9-0.8c0.5,0,1.1-0.1,1.6,0c0.2,0,0.4-0.2,0.5-0.2c0.4,0,0.7-0.2,1.1-0.2c0.3,0,0.5-0.2,0.9-0.2
				c0.1,0,0.7,0,0.7,0.2c0,0,0.4,1,0.3,0.9c0.2,0.1,0.1,0.7,0,0.9c-0.2,0-0.1,1,0,1.2c0.2,0.2,0.3,0.3,0.3,0.6c0,0.1-0.2,0-0.2,0
				c0,0.2,0.1,0,0.1,0.1c0,0-0.1,0.4-0.2,0.4c-0.4,0.2,0.1,0.3,0.1,0.5c-0.3,0.8,0.7,1,0.7,1.6c0,0.1-0.2,0.4,0.1,0.3
				c0.1,0,0.1,0.4,0,0.5c-0.2,0.1,0,0.5,0,0.6c-0.1,0.5,0.5,0.9,0.5,1.4c0,0.4-0.2,0.9,0.1,1.2c0.2,0.2,0.5,0.5,0.5,0.8
				c0,0.6,0.2,0.8,0.2,1.3c0,0.2,0.2,0.5,0.2,0.7c0-0.1,0.7-0.6,0.8-0.8c0.2-0.2,0.4-0.4,0.6-0.6c0.2-0.2,0.7-0.6,0.8-0.8
				c0-0.2,0.4-0.4,0.4-0.6c0-0.2,0.2-0.8,0.4-0.9c0-0.1,0.3-0.6,0.4-0.7c0.2-0.2,0.2-0.6,0.4-0.8c0.8-0.7-0.5-0.5-0.7-0.7
				c-0.3-0.3-0.6-0.2-0.6-0.8c0-0.3,0.4-0.5,0.6-0.7C64,28.9,65,29,65.6,29c0.4,0,0.4,0,0.8-0.1c0.2-0.1,0.7-0.3,0.8-0.2
				c0.2,0,1.7-0.5,1.7,0.1c0,0.2,0.3,0.6,0.1,0.8c-0.1,0.1-0.3,0.5-0.4,0.6c-0.3,0.4-1.1,0.6-1.4,1c-0.2,0.3-0.9,1-0.9,1.4
				c-0.1,0.1-0.5,1.2-0.5,1.3c0,0.2-0.5,0.3-0.3,0.6c0,0.1-0.3,0.6-0.3,0.7c0.2,0.4-0.2,0.3-0.2,0.7c0,0.4,0.2,0.5,0.5,0.8
				c0.2,0.2,0-0.3,0.3-0.1c0.6,0.3,0.5,0.5,0.9,1c0.1,0.2,0.2,0.5,0.3,0.7c0.1,0.2,0.4,0.2,0.6,0.4c0.3,0.4,1,0.7,1,1.4
				c0,0.5,1.2,1,1.6,0.9c0.3-0.1,0.5,0.5,0.7,0.5c0.1,0,0.6,0.2,0.7,0.2c0.3,0.4,1.5-0.3,1.8,0.2c0.2,0,0.6,0.2,0.6,0.4
				c0,0.5-0.1,0.6,0.2,0.9C74.1,43.3,73.6,43.3,73.5,43.4z M85.6,39.5c-0.1,0.1-0.4,0.4-0.3,0.6c0.1,0.2-0.6,1.1-0.8,1.2
				c-0.2,0-0.6,0.3-0.7,0.4c0.1,0-0.9,0.4-0.9,0.4c-0.1,0.1-0.7,0.4-0.9,0.4c-0.1,0-0.7,0.4-0.8,0.5c-0.5,0.7-1.9,0.2-2.7,0.2
				c-0.4,0.4-1.3-0.5-1.7-0.4c-0.4,0.1-0.1-0.5-0.2-0.6c-0.2-0.2-0.5,0.1-0.7,0.1c-0.2,0-0.8-0.1-0.8-0.3c0-0.1-0.4-0.7-0.5-0.8
				c-0.3-0.2-0.2-1.1-0.9-1c-0.3,0.1-0.9-0.4-1-0.7c-0.1-0.3-0.4-1.1-0.6-1.3c-0.2-0.2-0.1-0.8-0.3-0.9c0,0-0.4-0.6-0.4-0.6
				c0-0.3-0.4-0.6-0.3-0.9c0.1-0.2,0.1-0.7,0.1-1c0-0.6,0.2-1.1,0.1-1.7c0-0.7,0.3-1.1,0.4-1.7c0.2-0.6,0.2-1.3,0.8-1.7
				c0.5-0.4,0.9-0.8,1.4-1.3c0.3-0.3,0.8-1.1,1.3-1.1c0.3,0,0.6-0.2,0.9-0.2c0,0.1,1.2,0.1,1.2,0.1c0.5-0.1,1.1,0,1.6,0
				c0.2,0,1.5,0.2,1.5,0.3c0,0.1,0.7,0.3,0.9,0.4c0.2,0.2,0.4,0.2,0.6,0.3c0.1,0.1,0.7,0.3,0.7,0.4c0,0,0.6,0.3,0.5,0.4
				c0,0,0.6,0.6,0.6,0.6c0,0.1,0.3,0.6,0.4,0.7c0.2,0.1,0.5,0.5,0.4,0.7c0-0.1,0.3,0.9,0.3,0.8c0,0.2,0.2,0.5,0.1,0.7
				c-0.2,0.4,0.1,0.4,0.1,0.7c0,0.3,0.1,0.2-0.1,0.3c-0.1,0.1,0.2,0.1,0.2,0.3c0,0.1,0.1,0.6-0.2,0.6c-0.5,0.5-0.9,0.9-1.6,0.4
				c-0.1,0-1,0.1-1.2,0c-0.1,0-0.5,0.1-0.6,0.2c-0.1,0.1-0.7,0.2-0.7,0.3c-0.1,0.1-1.4,0.3-1.4,0.2c-0.2-0.2-1.2,0.2-1.5,0.2
				c-0.2,0-0.4,0.2-0.7,0.2c-0.2,0-0.7,0-0.8,0.1c-0.4,0.4-1.4-0.1-1.4,0.6c0,0.2-0.4,0.8-0.5,0.9c-0.3,0.2,0.3,1.2,0.6,1.2
				c0.1,0,0.3,0.5,0.3,0.6c0,0.2,0.5,0.3,0.6,0.4c0.2,0.2,0.4,0.5,0.7,0.5c0.2,0,0.6,0.1,0.7,0.2c0.7,0.7,2.1,0.8,2.8,0.1
				c0.1-0.2,1.3-0.6,1.5-0.6c0.2-0.2,0.5-0.7,0.8-0.9c0.1-0.1,0.3-0.5,0.3-0.5c0,0,0.2-0.2,0.2-0.1c0,0.1,0,0.2,0.1,0.2
				c0.1,0.1,0-0.3,0-0.3c-0.1-0.4,0.7-0.1,0.6-0.1c0.1,0-0.2-0.5,0.2-0.5c0.1,0,0.5-0.1,0.6,0c0,0-0.4,0.1-0.1,0.1
				c0.2,0,0.2,0.3,0.4,0.3c0.4,0,0.4,0.5,0.4,0.8C85.7,38.8,85.6,39.4,85.6,39.5z M95.9,25.6c0,0.1-0.2,0.2-0.2,0.1
				C95.7,25.5,95.9,25.5,95.9,25.6z M100.8,37.2c0,0.3-0.1,0.5-0.2,0.8c-0.1,0.2-0.6,0.8-0.5,0.9c0.2,0.2,0.2,0.5-0.1,0.5
				c-0.1,0-0.2,0.4-0.3,0.5c-0.1,0.1-0.2,0.1-0.3,0.2c-0.2,0.1-0.6,0.2-0.7,0.4c-0.3,0.4-1.6,0.2-1.9,0.2c-0.1,0-0.7,0.3-0.7,0.3
				c-0.2,0.3-0.9-0.1-1,0.1c-0.2,0.2-1.4-0.2-1.6-0.4c-0.4-0.3-1.8-0.3-2.3-0.3c-0.3,0-0.4,0.3-0.8,0.3c-0.2,0-0.6,0.2-0.8,0.2
				c-0.3,0.1-1.2-1-1.3-1.2c0-0.5,0.4-1.7-0.1-2.2c-0.3-0.2,0.1-1.1-0.2-1.4c-0.2-0.2-0.2-0.5-0.2-0.7c0-0.1-0.2-0.2-0.2-0.3
				c0-0.1,0.1-0.3,0.1-0.4c0-0.3,0.4-0.3,0.5-0.4c0.4-0.5,1.3,0.8,1.6,1c0.3,0.2,0.3,0.6,0.6,0.8c0.1,0.1,0.2,0.5,0.3,0.6
				c0.1,0,1.1,1.2,1.1,1.3c0,0,0.5,0.6,0.3,0.6c0.2,0,0.4-0.2,0.6-0.2c0.2,0,0.5,0.1,0.7,0.1c0.4,0,0.8,0,1.2,0c0,0,0.9-0.2,1-0.2
				c0.2,0,0.4-0.2,0.7-0.2c0.1,0,0.6-0.4,0.7-0.5c0-0.1,0.3-0.6,0.4-0.6c0.3-0.2,0-0.8,0.1-1c0.2-0.2,0.2-0.4,0.3-0.6
				c0-0.3-0.1-1.1-0.6-1.2c-0.1-0.2-0.6-0.4-0.8-0.4c-0.3,0-0.6-0.2-0.9-0.2c-0.2,0-1.5-0.2-1.6-0.4c-0.3-0.4-1.1,0-1.5,0
				c-0.6,0.1-1.1-0.1-1.6-0.3c-0.1,0-0.9-0.3-0.9-0.3c-0.2-0.1-0.7,0-0.9-0.1c-0.8,0-0.6-0.9-1-1.2c-0.2-0.1-0.8-1.1-0.8-1.3
				c0-0.3-0.4-0.8-0.2-1c0.2-0.2,0.1-0.7,0.3-0.8c0-0.1,0.2-0.6,0.3-0.7c0.1-0.1,0.3-0.4,0.3-0.5c0.3-0.3,0.8-1,1.3-1
				c0.3,0,0.5-0.3,0.9-0.3c0.1-0.2,0.9,0,1.1,0c0.6,0,1.2-0.2,1.8-0.2c0.2,0,0.8,0.3,0.9,0.2c0.3-0.3,0.6,0.4,0.7,0.3
				c0.2,0.1,0.9,0.2,1.1,0c0.2-0.1,0.3,0.5,0.4,0.5c0.5,0.4,0.3-0.5,0.3-0.5c0-0.3,0.3-0.4,0.5-0.4c0.9-0.1,1.5,0.2,1.6,1.2
				c0,0.2-0.1,0.3-0.2,0.4c-0.2,0.2,0,0.6,0,0.8c0,0.2,0.2,0.4,0.2,0.6c0,0.2,0.3,0.6,0.4,0.7c0.1,0.2,0,0.7,0.2,0.9
				c0.2,0.2-0.1,1-0.5,0.6c0,0-0.3,0.3-0.3,0.3c-0.1,0,0.1-0.3,0.1-0.3c-0.1-0.1-0.2,0.2-0.2,0.2c0,0-0.6-0.9-0.6-1
				c0-0.3-1-0.6-0.9-0.7c0.1-0.5-2.1-1.2-2.5-1.1c-0.4,0.1-0.7-0.2-1.2-0.2c-0.2,0-0.6,0-0.8,0c-0.3,0-0.6,0.1-1,0
				c-0.3-0.1-1.1,0.1-1,0.6c0-0.2-0.5,1.1-0.4,1c-0.4,0.3,0.2,1.2,0.5,1.4c0.1,0.1,0.5,0.4,0.6,0.5c0.1,0.1,0.8,0.1,1,0.1
				c0.5,0,1.7-0.3,2.1,0.2c0.1,0.1,0.8-0.2,1,0c0.2,0.2,0.9-0.1,1,0.1c0.3,0.3,1.6-0.4,1.9,0.3c0.2,0,0.6,0.2,0.7,0.3
				c0,0.1,0.6,0.1,0.7,0.1c0.7,0,1.1,1.1,1.5,1.4c0.4,0.3,0.2,1.1,0.7,1.4c0,0-0.3,0.8-0.3,1C101,36.3,100.8,37.1,100.8,37.2z
				 M98.3,30.9c-0.1,0.1-0.4-0.1-0.2-0.1C98.3,30.8,98.5,30.7,98.3,30.9z M102.3,38.3c-0.5-0.1-0.9-0.6-0.8-1.1
				c0.1-1.4,2.2-0.9,1.9,0.4C103.6,38,102.6,38.3,102.3,38.3z M104.2,38.6C104.2,38.7,104.2,38.7,104.2,38.6c-0.1,0.3-1.2,2-1.1,1
				c0-0.4,0.1-1.1,0.4-1.3C103.8,38.1,104.3,38.3,104.2,38.6C104.2,38.6,104.2,38.6,104.2,38.6z M104.7,37.5
				c0.5,0.1,0.2,0.7-0.1,0.6C104.1,37.9,104.3,37.5,104.7,37.5z"/>
			<path d="M84.2,37.6c0,0.2,0.2,0.1,0.2,0C84.5,37.5,84.2,37.4,84.2,37.6z"/>
			<path d="M96.4,29c0,0-0.1-0.2-0.2-0.1C96.1,29,96.3,29.1,96.4,29z"/>
			<path d="M83.7,38.1C83.7,38.1,83.8,38.2,83.7,38.1C83.8,38.1,83.7,38,83.7,38.1z"/>
		</g>
	</g>
</g>
<g id="Layer_2">
</g>
</svg>
