<?xml version="1.0" encoding="utf-8"?>
<!-- Generator: Adobe Illustrator 18.0.0, SVG Export Plug-In . SVG Version: 6.00 Build 0)  -->
<!DOCTYPE svg PUBLIC "-//W3C//DTD SVG 1.1//EN" "http://www.w3.org/Graphics/SVG/1.1/DTD/svg11.dtd">
<svg version="1.1" id="Layer_1" xmlns="http://www.w3.org/2000/svg" xmlns:xlink="http://www.w3.org/1999/xlink" x="0px" y="0px"
	 viewBox="0 0 175 36" enable-background="new 0 0 175 36" xml:space="preserve">
<g>
	<path d="M5,3.9h5.4v4.4h0.1c1.4-3,5-5.1,9.3-5.1c5.5,0,10.3,3.3,10.3,10.8v18.2h-5.4V15.4c0-5.3-3-7.3-6.4-7.3
		c-4.5,0-7.9,2.9-7.9,9.4v14.6H5V3.9z"/>
	<path d="M38.3,20c0,5,4.6,8.2,9.5,8.2c3.3,0,5.7-1.7,7.8-4.2l4.1,3.1c-3,3.9-7.1,5.8-12.5,5.8c-9,0-14.6-6.4-14.6-14.9
		c0-8.5,6.1-14.9,14.6-14.9c10,0,13.8,7.6,13.8,14.9V20H38.3z M55.3,15.7c-0.1-4.7-2.7-8.2-8.2-8.2c-5.3,0-8.8,4.5-8.8,8.2H55.3z"/>
	<path d="M71.3,17l-10-13.2h6.9l6.9,10l6.7-10h6.5L78.7,17l11.5,15.1h-6.9l-8.4-11.9l-8.4,11.9h-6.6L71.3,17z"/>
	<path d="M91.6,3.9h5v4.4h0.1c0.5-1.7,4-5.1,9.1-5.1c4.2,0,7,1.8,8.8,5.3c1.9-3.5,5.6-5.3,9-5.3c8.7,0,10.7,6.2,10.7,12.5v16.5h-5.4
		V16.4c0-4.3-0.9-8.2-6.1-8.2c-5.2,0-7.2,3.5-7.2,8.5v15.5h-5.4V17.3c0-5.4-0.8-9.2-6-9.2c-3.9,0-7.3,2.9-7.3,9.3v14.7h-5.4V3.9z"/>
	<g>
		<circle cx="153.1" cy="17.7" r="3.4"/>
		<g>
			<path d="M167.7,16.2c-0.9-7.4-7.1-13-14.7-13c-6.2,0-11.4,3.7-13.7,9.1l4.6,1.8c1.5-3.5,5-5.9,9.1-5.9c4.8,0,8.9,3.5,9.7,8.1
				h-1.9l4.6,4.5l4.6-4.5H167.7z"/>
			<path d="M162,22c-1.5,3.5-5,5.9-9,5.9c-4.7,0-8.7-3.4-9.6-7.8h2.1l-4.6-4.5l-4.6,4.5h2.1c1,7.2,7.2,12.8,14.7,12.8
				c6.1,0,11.4-3.7,13.7-9L162,22z"/>
		</g>
	</g>
</g>
</svg>
